<svg id="Layer_1" data-name="Layer 1" xmlns="http://www.w3.org/2000/svg" viewBox="0 0 600 400"><defs><style>.cls-1,.cls-7{fill:#fff;}.cls-1,.cls-2{opacity:0.15;}.cls-3{fill:#fba061;}.cls-4{fill:#e24f51;}.cls-5{fill:#3c3c7a;}.cls-6{opacity:0.47;}</style></defs><title>Bg-Learning_1</title><rect class="cls-1" width="600" height="400"/><g class="cls-2"><path class="cls-3" d="M37,167a50.38,50.38,0,0,0-11.38-19.76,1.29,1.29,0,0,0-1-.56,1.36,1.36,0,0,0-.74.44q-4.95,4.71-9.66,9.67A31.86,31.86,0,0,1,37,167Z"/><path class="cls-4" d="M34,171.17a23.92,23.92,0,0,0-15.51-3.35,44.52,44.52,0,0,0,.8,11,4.86,4.86,0,0,0,2-1.46A24.14,24.14,0,0,1,34,171.17Z"/><path class="cls-4" d="M37.37,167.11c-3.24-7.38-6.72-15-12.78-20.28a30.07,30.07,0,0,0-10,10,20,20,0,0,1,12.83,2.53A46.34,46.34,0,0,1,37.37,167.11Z"/></g><g class="cls-2"><path class="cls-4" d="M272.24,354.77l-8.65-.94c-.19,2.25-.37,4.51-.46,6.77a.71.71,0,0,1-.63.74.69.69,0,0,1-.74-.63c.09-2.35.27-4.69.47-7l-10.14-1.1c-.17,2.27-.47,4.53-.76,6.79-.11.88-1.46.62-1.35-.26.29-2.22.58-4.44.75-6.68l-11.67-1.26c-.14,2.22-.41,4.44-.56,6.66a.68.68,0,0,1-.8.55.71.71,0,0,1-.55-.8c.14-2.19.41-4.37.55-6.56l-11.78-1.28c-.3,2.27-.59,4.54-.89,6.81-.12.88-1.47.61-1.35-.26l.87-6.7-10.7-1.16-.9,7c-.12.88-1.47.61-1.35-.26.29-2.28.59-4.57.89-6.85L200.89,347c-.33,2.29-.59,4.59-.86,6.88-.1.88-1.45.62-1.35-.25.26-2.26.52-4.52.84-6.78l-12.26-1.33s0,.08,0,.11c-.44,2.34-.69,4.7-.94,7.05a.69.69,0,1,1-1.35-.25c.25-2.36.5-4.72.94-7.05h0L172.63,344l-.42,3c-.17,1.29-.28,2.58-.45,3.86a.66.66,0,0,1-.75.9c-.9-.22-.62-1.22-.53-1.91s.18-1.64.29-2.45c.17-1.2.33-2.4.5-3.59l-12.91-1.4-2.52,22.21q56.57,5.2,113,11.73Z"/></g><g class="cls-2"><path class="cls-5" d="M50.94,153.83a14.35,14.35,0,0,1-1.85-.11.86.86,0,1,1,.2-1.7,13.19,13.19,0,0,0,8.91-2,10.14,10.14,0,0,0,4.42-7.66c.09-2.15-.9-4.7-3-5.39a8.31,8.31,0,0,0-4.2.18c-1.89.39-3.85.78-5.66-.18-2.47-1.32-3.39-4.5-2.6-9,.48-2.64,1.06-5.93-.76-7.74a8,8,0,0,0-3.45-1.6,12.4,12.4,0,0,1-3.24-1.27,8.61,8.61,0,0,1-3.7-6.78,23.28,23.28,0,0,1,1-7.39.87.87,0,0,1,1-.63.88.88,0,0,1,.63,1.05,21.76,21.76,0,0,0-1,6.84,6.93,6.93,0,0,0,2.89,5.45A11.25,11.25,0,0,0,43.47,117a9.33,9.33,0,0,1,4.18,2c2.46,2.45,1.76,6.39,1.24,9.26-.38,2.12-.66,5.87,1.71,7.13,1.28.68,2.85.36,4.51,0a9.77,9.77,0,0,1,5.09-.13c3,1,4.25,4.38,4.13,7.09a11.85,11.85,0,0,1-5.16,9A14.55,14.55,0,0,1,50.94,153.83Z"/></g><g class="cls-2"><path class="cls-4" d="M120,218.57c8.31.36,16.62.9,25,1.63,1-4.26,1.77-8.57,2.4-12.89,0,0-27-2.47-27.13-2.27C120.13,209.54,120,214,120,218.57Z"/><path class="cls-5" d="M138,219.67a.85.85,0,0,1-.82-.61,63.8,63.8,0,0,1-1.93-8.64,11.67,11.67,0,0,1,.3-6.26,12,12,0,0,1,.95-1.78c.26-.43.51-.84.71-1.26a5.8,5.8,0,0,0-.3-5.58,4.7,4.7,0,0,0-4.93-2,3.92,3.92,0,0,0-2.85,4.12,8,8,0,0,0,1.23,2.79,9.1,9.1,0,0,1,1.45,3.46,8.75,8.75,0,0,1-.1,2.5,85.34,85.34,0,0,1-2.65,12A.86.86,0,0,1,128,219a.85.85,0,0,1-.58-1.06,83.66,83.66,0,0,0,2.6-11.8,7.05,7.05,0,0,0,.1-2,7.77,7.77,0,0,0-1.23-2.81,9.49,9.49,0,0,1-1.45-3.42,5.63,5.63,0,0,1,4.11-6,6.45,6.45,0,0,1,6.79,2.68,7.5,7.5,0,0,1,.43,7.27,14.86,14.86,0,0,1-.79,1.42,11.09,11.09,0,0,0-.83,1.54,10.23,10.23,0,0,0-.19,5.35,61.92,61.92,0,0,0,1.88,8.41.87.87,0,0,1-.58,1.07A1,1,0,0,1,138,219.67Z"/></g><g class="cls-2"><path class="cls-5" d="M178.34,72.85A4,4,0,0,1,175,70.7a9.57,9.57,0,0,1-.92-4L172.92,52a7.59,7.59,0,0,1,.15-2.94,3,3,0,0,1,5.76-.38,8.11,8.11,0,0,1,.55,3.31l.21,13.76a.87.87,0,0,1-.85.87.85.85,0,0,1-.87-.85L177.66,52a6.27,6.27,0,0,0-.39-2.59,1.3,1.3,0,0,0-2.56.14,6.34,6.34,0,0,0-.08,2.31l1.17,14.7a8.19,8.19,0,0,0,.72,3.27,2.18,2.18,0,0,0,2.12,1.23c.88-.2,1.51-1.26,1.89-3.14A88,88,0,0,0,182,48.59c0-1.32-.12-2.68-.89-3.49s-2.27-1-3.58-1.05c-2.2-.1-4.61,0-5.84,1.51-.88,1.08-1,2.67-1,4.21a85.47,85.47,0,0,0,1.59,17.41.86.86,0,0,1-1.69.33A88.2,88.2,0,0,1,169,49.75c0-1.76.14-3.76,1.37-5.28,1.71-2.1,4.62-2.26,7.25-2.14,1.64.08,3.5.27,4.75,1.59s1.33,3,1.36,4.63a90.23,90.23,0,0,1-1.49,19.75c-.2,1-.79,3.93-3.2,4.47A3.23,3.23,0,0,1,178.34,72.85Z"/></g><g class="cls-2"><path class="cls-5" d="M429.08,296a3.31,3.31,0,0,1-.68-.08,3.81,3.81,0,0,1-2.75-3.56,9.39,9.39,0,0,1,.83-4l5.14-13.83a7.94,7.94,0,0,1,1.38-2.61,3,3,0,0,1,5.38,2.09,7.82,7.82,0,0,1-.89,3.23l-5.62,12.56a.86.86,0,0,1-1.57-.7l5.62-12.57a6.46,6.46,0,0,0,.75-2.51,1.3,1.3,0,0,0-2.39-.95,6.41,6.41,0,0,0-1,2.05L428.09,289a8,8,0,0,0-.73,3.25,2.2,2.2,0,0,0,1.41,2c.88.19,1.9-.5,3-2.05a88.45,88.45,0,0,0,9.49-16.95c.54-1.2,1-2.47.67-3.54s-1.64-1.85-2.81-2.46c-1.94-1-4.17-2-5.92-1.1-1.26.61-2,2-2.68,3.41a86.51,86.51,0,0,0-5.9,16.45.86.86,0,0,1-1,.63.85.85,0,0,1-.62-1,87,87,0,0,1,6-16.78c.76-1.59,1.71-3.36,3.47-4.21,2.43-1.19,5.14-.1,7.47,1.12,1.46.76,3.07,1.72,3.64,3.44s-.08,3.33-.72,4.78a91.27,91.27,0,0,1-9.69,17.27C432.66,293.91,431.15,296,429.08,296Z"/></g><g class="cls-2"><path class="cls-5" d="M232.38,220.09a.83.83,0,0,1-.7-.29,19.67,19.67,0,0,0-28.32-1.21.86.86,0,0,1-1.18-1.24A21.36,21.36,0,0,1,233,218.67a.86.86,0,0,1-.59,1.42Z"/><path class="cls-5" d="M220.6,231.51a.85.85,0,0,1-.87-.58,10.63,10.63,0,0,0-12.06-7.08.86.86,0,1,1-.31-1.69,12.36,12.36,0,0,1,14,8.22.86.86,0,0,1-.54,1.09A.85.85,0,0,1,220.6,231.51Z"/></g><g class="cls-2"><path class="cls-4" d="M47.29,68.56c0,.16,0,.32-.06.48,4-3.46,8.13-6.86,12.34-10.12,3.81-3,7.7-5.81,11.72-8.47s8.29-5.08,12.49-7.53c2.13-1.24,4.26-2.49,6.42-3.67s4.22-2.26,6.32-3.42,4.16-2.28,6.29-3.33c1-.51,2.11-1,3.19-1.46l.52-.22c-.85-1.88-1.75-3.72-2.71-5.54-23,8.53-43.59,23.46-62.13,40.13,1.68-.64,3.52-.82,4.68.28A3.55,3.55,0,0,1,47.29,68.56Z"/><path class="cls-4" d="M51.79,76.34a.63.63,0,0,1,.08-.81,119.65,119.65,0,0,1,12-10.77c3.77-3,7.69-5.7,11.68-8.35s8.11-5.32,12.32-7.72c1-.6,2.11-1.18,3.18-1.73s2.22-1.07,3.3-1.66c2.15-1.16,4.29-2.35,6.5-3.41s4.59-2.09,6.89-3.11l1.74-.77c-.7-1.93-1.44-3.82-2.25-5.68l-.87.36c-1.22.53-2.42,1.1-3.61,1.69-2.35,1.17-4.65,2.44-7,3.69-4.28,2.31-8.52,4.66-12.71,7.15-2.06,1.23-4.16,2.4-6.2,3.65s-4.06,2.56-6,3.9A263.66,263.66,0,0,0,48.16,70.24l0,0a3.11,3.11,0,0,1,1.13-.14,3.14,3.14,0,0,1,2.58,1.82c.67,1.49.07,3.21-.54,4.73A2.7,2.7,0,0,1,51.79,76.34Z"/><path class="cls-4" d="M99.84,44.05c-2.18,1.12-4.31,2.33-6.51,3.4s-4.21,2.17-6.26,3.37c-4.17,2.44-8.26,5.06-12.26,7.78A145.16,145.16,0,0,0,53.3,76a3.43,3.43,0,0,1,2.55,1.22A4.23,4.23,0,0,1,56,82C72.91,67.73,92.6,57.26,112.11,46.9c-.62-2.55-1.35-5-2.17-7.46C106.55,40.93,103.14,42.37,99.84,44.05Z"/><g class="cls-6"><path class="cls-3" d="M47.08,70.24a.91.91,0,0,1-.11-.16c-.16.49-.35,1-.54,1.45a3.18,3.18,0,0,1,1.22-1.08A.75.75,0,0,1,47.08,70.24Z"/></g><path class="cls-4" d="M121.14,40l11.37-4.58a7.47,7.47,0,0,0,3.08-1.86,6.4,6.4,0,0,0,1.12-4.5,13.7,13.7,0,0,0-2.33-7.5A8.23,8.23,0,0,0,127.61,18a13.27,13.27,0,0,0-4.21,1.12c-3,1.15-5.94,2.3-9.11,3.66a96.25,96.25,0,0,1,5.53,13.9A14.27,14.27,0,0,0,121.14,40Z"/><path class="cls-5" d="M35.72,90.25a2.18,2.18,0,0,1-1.46-.57,2.15,2.15,0,0,1-.6-2.16c2.07-7.33,4-13.61,6.72-22a.8.8,0,0,1,.22-.35,196.63,196.63,0,0,1,72.34-44.82.87.87,0,0,1,1,.41,85.59,85.59,0,0,1,8,21.28.87.87,0,0,1-.47,1,438.2,438.2,0,0,0-45.06,25c-6.7,4.26-13.74,9-19.81,14.71a.84.84,0,0,1-.28.18c-4.17,1.58-8.81,3.21-12.9,4.65-2.53.9-4.93,1.74-7,2.5A2.1,2.1,0,0,1,35.72,90.25Zm6.23-24C39.3,74.52,37.36,80.74,35.31,88a.42.42,0,0,0,.12.43.43.43,0,0,0,.44.09c2.1-.77,4.49-1.61,7-2.51,4-1.42,8.59-3,12.7-4.58,6.14-5.76,13.21-10.51,19.94-14.79a438.68,438.68,0,0,1,44.62-24.84,83.3,83.3,0,0,0-7.35-19.54A195,195,0,0,0,42,66.28ZM56.06,82.17h0Z"/><path class="cls-5" d="M56.08,83a.83.83,0,0,1-.34-.07.85.85,0,0,1-.45-1.12,4.91,4.91,0,0,0-.2-4.17,1.61,1.61,0,0,0-.75-.79,2,2,0,0,0-.73,0,13.09,13.09,0,0,0-2.24.46.86.86,0,0,1-.78-1.49c.75-.6.71-1.89.45-2.81a2.79,2.79,0,0,0-1.1-1.69c-.89-.47-2.17.08-3.31.69a.86.86,0,0,1-.91-1.45,2.34,2.34,0,0,0,.79-2.43,2.88,2.88,0,0,0-1.94-1.94,3.81,3.81,0,0,0-2.93.35.85.85,0,0,1-1.17-.33A.86.86,0,0,1,40.81,65a5.48,5.48,0,0,1,4.28-.49,4.62,4.62,0,0,1,3.08,3.14,4.09,4.09,0,0,1,.06,1.84,3.69,3.69,0,0,1,2.53.28,4.32,4.32,0,0,1,1.93,2.73,5.53,5.53,0,0,1,.13,2.69l.6-.08a3.37,3.37,0,0,1,1.44.08,3.13,3.13,0,0,1,1.74,1.61,6.57,6.57,0,0,1,.27,5.66A.87.87,0,0,1,56.08,83Z"/><path class="cls-5" d="M112.26,47.41a.87.87,0,0,1-.83-.63,104.32,104.32,0,0,0-8.63-21.36.88.88,0,0,1,.35-1.17.87.87,0,0,1,1.17.35,106.23,106.23,0,0,1,8.77,21.72.86.86,0,0,1-.6,1.06A.85.85,0,0,1,112.26,47.41Z"/><path class="cls-5" d="M38.62,76.3l8.22,8.81q-2.22,1-4.45,1.87l-5.26,2.2c-.57.24-1.33.44-1.73,0a1.38,1.38,0,0,1-.24-.72,9.39,9.39,0,0,1,.69-3.86C36.7,82,37.65,79.42,38.62,76.3Z"/><path class="cls-5" d="M109.06,27.32a1.07,1.07,0,1,1,1.07,1.07A1.07,1.07,0,0,1,109.06,27.32Z"/><circle class="cls-5" cx="112.71" cy="33.16" r="1.07"/><path class="cls-5" d="M113.78,39.35a1.08,1.08,0,1,1,1.07,1.07A1.07,1.07,0,0,1,113.78,39.35Z"/></g><g class="cls-2"><path class="cls-4" d="M337.16,90a33.45,33.45,0,0,0-3.58-8.78,176,176,0,0,0-9-15.83,128.36,128.36,0,0,0-14.15-17.26c-6.88-7.24-14.41-14.17-23.63-18,0,0-.05,0-.23.33a23.59,23.59,0,0,1,.06,19.9,21.91,21.91,0,0,1-15.51,12.24c-3.78,1.58-8.14.6-11.95-.9-4.78-1.89-9.4-4.74-12.29-8.84a144,144,0,0,0,22.63,65.41c2.11,3.24,4.43,6.47,7.67,8.58a20.51,20.51,0,0,0,6.23,2.57c7.11,1.76,14.72.83,21.59-1.75a65.79,65.79,0,0,0,18.66-11.42c4-3.31,7.77-7,10.41-11.41S338.17,95.11,337.16,90Zm-47,27.51A107.2,107.2,0,0,1,276,97.09c11.54-7.91,22.81-15.36,34.08-22.81,5,6.59,9.83,13.23,15,19.66A396.49,396.49,0,0,1,290.15,117.55Z"/><path class="cls-7" d="M282.89,80.34a2.67,2.67,0,0,1-1.37-.39,2.77,2.77,0,0,1-1.33-3.21,2.19,2.19,0,0,1,1.71-1.39l.17,0c-2.41-4.46-4.95-8.93-7.54-13.29a.87.87,0,0,1,.3-1.18.86.86,0,0,1,1.18.3c2.65,4.46,5.24,9,7.7,13.59a10.22,10.22,0,0,1,1.09,2.58,2.45,2.45,0,0,1-.63,2.57A2,2,0,0,1,282.89,80.34ZM282.28,77h-.08a.51.51,0,0,0-.39.27,1.12,1.12,0,0,0,.58,1.17.71.71,0,0,0,.68.09c.11-.09.17-.41.06-.86a2,2,0,0,0-.09-.33.8.8,0,0,1-.64-.32A.17.17,0,0,0,282.28,77Z"/><path class="cls-7" d="M289.89,69.36a2.71,2.71,0,0,1-1.53-.5A5.53,5.53,0,0,1,287,67.29c-2-3.1-4-6.3-5.77-9.54a.84.84,0,0,1,.33-1.16.85.85,0,0,1,1.17.33c1.58,2.83,3.26,5.64,5,8.37A2.55,2.55,0,0,1,292,66.86,2.3,2.3,0,0,1,291,69.08,2.09,2.09,0,0,1,289.89,69.36Zm-1.17-2.57a2.81,2.81,0,0,0,.62.66.82.82,0,0,0,.77.14.58.58,0,0,0,.22-.55.84.84,0,0,0-1.61-.25Z"/><path class="cls-5" d="M266.93,64a24.29,24.29,0,0,1-9.18-1.8c-6.5-2.68-11.84-8.15-15-15.41a.85.85,0,0,1,.31-1.06,298.68,298.68,0,0,1,40.47-22.49.87.87,0,0,1,1.07.3,29.31,29.31,0,0,1,5.07,20,23.85,23.85,0,0,1-10.95,17.33A22.75,22.75,0,0,1,266.93,64ZM244.58,46.78A27,27,0,0,0,258.4,60.63,21.14,21.14,0,0,0,287.93,43.3a27.55,27.55,0,0,0-4.39-18.17A297.28,297.28,0,0,0,244.58,46.78Z"/><path class="cls-5" d="M256.45,38.82a.87.87,0,0,1-.78-.49,8.47,8.47,0,0,1,14.39-8.76.87.87,0,0,1-.17,1.21.86.86,0,0,1-1.2-.17,6.75,6.75,0,0,0-11.47,7,.86.86,0,0,1-.4,1.15A1,1,0,0,1,256.45,38.82Z"/><path class="cls-5" d="M277.87,102.65a.87.87,0,0,1-.72-.39.86.86,0,0,1,.26-1.19l36.68-23.71a.86.86,0,0,1,1.19.25A.87.87,0,0,1,315,78.8l-36.68,23.71A.92.92,0,0,1,277.87,102.65Z"/><path class="cls-5" d="M310.45,89.14a2.81,2.81,0,0,1-2.3-1.34,5.36,5.36,0,0,1-.69-2.63c0-.13,0-.26,0-.4a6.69,6.69,0,0,0-.21-1.67.84.84,0,0,1,.08-.69.86.86,0,0,1,.57-.41,2.9,2.9,0,0,1,2.22.75,6.42,6.42,0,0,1,2.45,2.55,3.15,3.15,0,0,1-.05,2.5,2.33,2.33,0,0,1-1.44,1.26A2.57,2.57,0,0,1,310.45,89.14Zm-1.31-5c0,.19,0,.36,0,.54s0,.26,0,.38a3.74,3.74,0,0,0,.42,1.8,1,1,0,0,0,1,.53.6.6,0,0,0,.35-.35A1.4,1.4,0,0,0,311,86,4.85,4.85,0,0,0,309.14,84.16Z"/></g><g class="cls-2"><path class="cls-4" d="M339.9,271.66c.24-6.46.44-12.92.65-19.37.11-3.25.21-6.49.34-9.73s.32-6.53.41-9.79.15-6.4.25-9.6.42-6.45.5-9.68c0-1.56,0-3.11.06-4.67,0-.5,0-1,.06-1.51l-2.3-.11c-1.05,28.18-2.11,56.36-3.58,84.84l2.67.26Q339.52,282,339.9,271.66Z"/><path class="cls-4" d="M344.1,207.4c-.09,2.73-.12,5.47-.27,8.21-.09,1.61-.19,3.21-.3,4.82s-.11,3.27-.15,4.89c-.07,3.27-.13,6.54-.26,9.8s-.35,6.38-.48,9.57-.27,6.5-.4,9.74c-.51,12.68-.94,25.36-1.56,38,19.88,1.94,39.81,3.88,60.29,5.81,1.86-28.85,3-57.75,3.73-86.28C384.52,210,364.29,208.35,344.1,207.4Zm45.3,41.71c-9.83-.5-23.46-1.72-35.27-2.89,0-6.27.47-12.82.63-20.06,9.22.47,27.29,1.94,35.91,2.38C390.27,235.33,389.86,241.56,389.4,249.11Z"/><path class="cls-5" d="M400.54,299.26h-.1c-9.72-1.14-20.88-2.07-31.67-3-11.08-.93-22.54-1.89-32.79-3.09a.86.86,0,0,1-.76-.93c1.31-15,1.65-29.73,2-43.95.31-13.46.64-27.38,1.78-41.56a.87.87,0,0,1,.9-.79c14.57.73,42.39,2.36,65,5a.86.86,0,0,1,.76.9c-.42,8.71-.74,17.52-1.08,26.84-.71,19.61-1.45,39.88-3.18,59.78a.86.86,0,0,1-.31.59A.83.83,0,0,1,400.54,299.26ZM337,291.58c10,1.15,21.15,2.08,31.92,3,10.48.88,21.3,1.79,30.84,2.88,1.67-19.57,2.39-39.51,3.09-58.81.33-9,.64-17.6,1-26.07-22-2.53-48.68-4.11-63.26-4.85-1.09,13.85-1.4,27.46-1.71,40.63C338.59,262.33,338.25,276.78,337,291.58Z"/><path class="cls-5" d="M384.88,234.22h0l-24.59-1a.85.85,0,0,1-.82-.9.87.87,0,0,1,.89-.82l24.59,1a.86.86,0,0,1,0,1.71Z"/><path class="cls-5" d="M384.46,242h0l-24.78-1.06a.86.86,0,1,1,.07-1.71l24.79,1.06a.86.86,0,0,1,.82.89A.87.87,0,0,1,384.46,242Z"/></g><g class="cls-2"><path class="cls-5" d="M340.66,344.35c-.81,0-1.59,0-2.31-.09-14.5-1-28.68-5.69-41.85-10.57-14.25-5.28-29.24-11.48-42.27-21a12.07,12.07,0,0,1-3.75-3.81,5,5,0,0,1,.46-5.66,6.61,6.61,0,0,1,4.45-1.6,66.45,66.45,0,0,1,30.68,4.91.86.86,0,0,1,.47,1.12.87.87,0,0,1-1.13.47,64.79,64.79,0,0,0-29.89-4.79,5.23,5.23,0,0,0-3.34,1.08,3.29,3.29,0,0,0-.18,3.67,10.37,10.37,0,0,0,3.24,3.22c12.87,9.38,27.72,15.52,41.86,20.76,13,4.84,27.09,9.45,41.38,10.46,5.12.37,8.3-.5,10-2.74a2.39,2.39,0,0,0,.59-1.43c0-.8-.78-1.55-1.49-2.18a89.16,89.16,0,0,0-32.74-18.5.86.86,0,0,1,.51-1.64,90.88,90.88,0,0,1,33.37,18.86,5,5,0,0,1,2.07,3.42,4,4,0,0,1-.94,2.51C347.65,343.73,343.92,344.35,340.66,344.35Z"/><path class="cls-5" d="M291.81,315.81a.86.86,0,0,1-.66-.31l-3.6-4.43a.86.86,0,1,1,1.33-1.08l3.6,4.42a.86.86,0,0,1-.13,1.21A.83.83,0,0,1,291.81,315.81Z"/><path class="cls-5" d="M298.74,324.27a.87.87,0,0,1-.68-.34l-3.22-4.14a.86.86,0,1,1,1.35-1.05l3.23,4.14a.86.86,0,0,1-.15,1.2A.82.82,0,0,1,298.74,324.27Z"/><path class="cls-5" d="M305.18,332.47a.85.85,0,0,1-.68-.33l-3.35-4.35a.86.86,0,0,1,1.37-1.05l3.34,4.35a.86.86,0,0,1-.68,1.38Z"/></g><g class="cls-2"><path class="cls-4" d="M424.42,355.53c2.21,2.73,3.1,6.43,5.65,8.84.84.78,1.81,1.4,2.68,2.14a11.72,11.72,0,0,1,3.55,5.36c.43,1.35.61,2.77,1,4.12.94,3.05,3,5.6,4.8,8.06,6.59-4.16,14.16-8.68,20.06-12.77-4.56-6.84-4.56-6.84-7.56-9.44-1.34-1.16-2.93-2.09-3.89-3.57-1.26-2-1.16-4.46-1.21-6.61-2-3.07-3.87-6.18-5.9-9.3C439.74,344.78,426.54,354.2,424.42,355.53Z"/><path class="cls-7" d="M447.09,379.84q-3.75-7.06-7.93-13.89a21,21,0,0,1-2.5-5,6.67,6.67,0,0,1,.54-5.41,4,4,0,0,1,4.86-1.66,6.56,6.56,0,0,1,2.41,2.49q5.89,8.92,11.17,18.26C452.75,376.24,449.9,377.94,447.09,379.84Z"/><path class="cls-5" d="M447.45,380.62a.85.85,0,0,1-.57.05.87.87,0,0,1-.55-.43c-2.48-4.67-5.14-9.33-7.9-13.84l-.09-.15a20.82,20.82,0,0,1-2.5-5.07,7.46,7.46,0,0,1,.64-6.12,4.92,4.92,0,0,1,5.95-2,7.21,7.21,0,0,1,2.75,2.8c3.84,5.79,7.61,11.95,11.21,18.31a.87.87,0,0,1,.08.65.85.85,0,0,1-.41.52c-3.19,1.79-6,3.48-8.49,5.18Zm-8.05-25.88a3.51,3.51,0,0,0-1.48,1.26,5.76,5.76,0,0,0-.43,4.71,19.52,19.52,0,0,0,2.31,4.64l.09.15c2.62,4.27,5.14,8.67,7.51,13.1,2.15-1.42,4.47-2.83,7.07-4.3-3.45-6.06-7.06-11.93-10.72-17.46a5.75,5.75,0,0,0-2.05-2.19A2.66,2.66,0,0,0,439.4,354.74Z"/><path class="cls-5" d="M444.54,366.73l-.12,0a1.92,1.92,0,0,1-1.47,0,1.9,1.9,0,0,1-1-1,1.86,1.86,0,0,1,.11-1.51,1.82,1.82,0,0,1,1.16-.93,1.86,1.86,0,0,1,1.32,3.47Zm-.92-1.8a.25.25,0,0,0-.06.16s0,0,.09.07a.24.24,0,0,0,.16,0,.24.24,0,0,0,.12-.2S443.81,364.89,443.62,364.93Z"/></g><g class="cls-2"><path class="cls-5" d="M384.05,183.83h0a.87.87,0,0,1-.85-.87v-3.17l-10.32-.54-.28,3.23a.86.86,0,0,1-1.72-.15l.36-4.06a.85.85,0,0,1,.9-.78l12,.63a.86.86,0,0,1,.81.86v4A.87.87,0,0,1,384.05,183.83Z"/></g><g class="cls-2"><path class="cls-5" d="M427.42,213.59a1.29,1.29,0,0,1-.92-.43c-2.5-2.52-4.91-5.17-7.19-7.89a.85.85,0,0,1,0-1.12c.82-.93,1.69-1.84,2.59-2.71a.85.85,0,0,1,1.21,0,.85.85,0,0,1,0,1.21c-.68.67-1.36,1.36-2,2.07,2,2.39,4.16,4.72,6.35,6.95l2.69-2.12a.86.86,0,0,1,1.06,1.35l-3,2.36a1.24,1.24,0,0,1-.78.31Z"/></g><g class="cls-2"><path class="cls-5" d="M209.61,78.53a.86.86,0,0,1-.22-1.69A12.71,12.71,0,0,0,217,71.78a7.7,7.7,0,0,0,.17-8.45A13.64,13.64,0,0,0,213.13,60c-1.86-1.17-3.78-2.37-4.91-4.37A7.42,7.42,0,0,1,212,45.43a14,14,0,0,1,3.38-.65c1.55-.18,3-.34,4-1.22a4.67,4.67,0,0,0,1.2-4.44,15.66,15.66,0,0,0-2.28-4.89.86.86,0,0,1,.28-1.18.85.85,0,0,1,1.18.28,17.16,17.16,0,0,1,2.5,5.46,6.35,6.35,0,0,1-1.77,6.08c-1.43,1.22-3.23,1.42-5,1.61a12.75,12.75,0,0,0-3,.56,5.7,5.7,0,0,0-2.84,7.75c.92,1.62,2.58,2.66,4.33,3.76a15.22,15.22,0,0,1,4.56,3.78,9.47,9.47,0,0,1-.13,10.39,14.39,14.39,0,0,1-8.64,5.78A.83.83,0,0,1,209.61,78.53Z"/></g><g class="cls-2"><path class="cls-5" d="M577.38,311.92a.86.86,0,0,1-.67-.32c-.88-1.07-2.41-1.46-4-1.88-2-.52-4.07-1.06-5.17-3-1.67-2.91.47-5.83,2.36-8.41,1.73-2.37,3.36-4.6,2.27-6.55-.79-1.41-2.51-1.74-4.5-2.13a11.26,11.26,0,0,1-4.79-1.71c-2.46-1.87-2.78-5.37-1.82-7.85a12.47,12.47,0,0,1,5.36-5.88c.5-.31,1-.61,1.52-.9a17,17,0,0,0,3.57-2.47c2.89-2.88,3.22-7.54,3.3-12.06a.86.86,0,0,1,1.72,0c-.09,4.88-.46,9.91-3.81,13.24a18.08,18.08,0,0,1-3.93,2.75c-.48.28-1,.57-1.46.87a10.87,10.87,0,0,0-4.67,5c-.71,1.84-.5,4.53,1.26,5.87A9.87,9.87,0,0,0,568,288c2.21.43,4.49.87,5.67,3,1.63,2.91-.51,5.83-2.39,8.4-1.73,2.37-3.36,4.6-2.25,6.54.74,1.28,2.38,1.71,4.11,2.15s3.69,1,4.93,2.46a.87.87,0,0,1-.66,1.41Z"/></g><g class="cls-2"><path class="cls-5" d="M441.42,67.06a.8.8,0,0,1-.49-.16.85.85,0,0,1-.22-1.19,32.39,32.39,0,0,0,.34-35.88.87.87,0,0,1,.24-1.19.86.86,0,0,1,1.19.24,34.3,34.3,0,0,1-.36,37.81A.86.86,0,0,1,441.42,67.06Z"/><path class="cls-5" d="M453.07,63.53a.92.92,0,0,1-.39-.09.87.87,0,0,1-.38-1.16,29.84,29.84,0,0,0,3.12-15.54.86.86,0,1,1,1.72-.12,31.62,31.62,0,0,1-3.3,16.44A.87.87,0,0,1,453.07,63.53Z"/></g><g class="cls-2"><path class="cls-5" d="M324.68,357.27h-.05a77.41,77.41,0,0,1-24.19-5.48.87.87,0,0,1-.48-1.12.86.86,0,0,1,1.12-.47,75.77,75.77,0,0,0,23.66,5.35.86.86,0,0,1-.06,1.72Z"/></g><g class="cls-2"><path class="cls-5" d="M311.28,364.56a.86.86,0,0,1-.09-1.72l12.53-1.25a.87.87,0,0,1,.94.77.85.85,0,0,1-.77.94l-12.53,1.25Z"/></g><g class="cls-2"><path class="cls-5" d="M395.13,155.05a.85.85,0,0,1-.85-.83,16.27,16.27,0,0,1,6-12.84,21.14,21.14,0,0,1,13.45-4.63h0a.86.86,0,0,1,.86.85.87.87,0,0,1-.85.87,19.4,19.4,0,0,0-12.36,4.23A14.78,14.78,0,0,0,396,154.16a.85.85,0,0,1-.83.89Z"/><path class="cls-5" d="M385.85,155.17a.85.85,0,0,1-.85-.84,21.85,21.85,0,0,1,4.07-13.12.86.86,0,1,1,1.39,1,20.16,20.16,0,0,0-3.75,12.08.85.85,0,0,1-.84.88Z"/></g><g class="cls-2"><path class="cls-4" d="M421.1,46.94,391.63,32.85a.71.71,0,0,0-1,.37l-4.29,10.11a.72.72,0,0,0,.36.93L416,58.13a.72.72,0,0,0,1-.36l4.5-9.88A.73.73,0,0,0,421.1,46.94Z"/><path class="cls-5" d="M401.18,103a5.34,5.34,0,0,1-2.17-.45c-8.28-3.58-16.58-7.94-24.61-12.16C371,88.61,367.45,86.75,364,85a5.56,5.56,0,0,1-2.56-7.24c8-17.64,16.21-34.9,23.92-50.94a5.56,5.56,0,0,1,7.57-2.52c11.82,6.15,23.48,11.82,33.33,16.55a5.51,5.51,0,0,1,2.66,7.28h0c-3.77,8.39-7.6,17.24-11.32,25.8S410,91.35,406.27,99.75A5.57,5.57,0,0,1,401.18,103ZM390.36,25.39a3.93,3.93,0,0,0-1.21.2,3.8,3.8,0,0,0-2.25,2c-7.7,16-15.93,33.28-23.9,50.9a3.82,3.82,0,0,0,1.77,5c3.47,1.77,7,3.63,10.43,5.43,8,4.2,16.27,8.55,24.49,12.11a3.85,3.85,0,0,0,5-2c3.77-8.4,7.61-17.25,11.32-25.81s7.55-17.41,11.33-25.82a3.83,3.83,0,0,0-1.84-5C415.65,37.66,404,32,392.12,25.82A3.88,3.88,0,0,0,390.36,25.39Zm37.77,22.39Z"/><path class="cls-5" d="M384.52,59.1a3.95,3.95,0,1,1,4-4A4,4,0,0,1,384.52,59.1Zm0-6.19a2.24,2.24,0,1,0,2.23,2.24A2.24,2.24,0,0,0,384.52,52.91Z"/><path class="cls-5" d="M396.55,65.28a4,4,0,1,1,3.95-4A4,4,0,0,1,396.55,65.28Zm0-6.18a2.24,2.24,0,1,0,2.23,2.23A2.23,2.23,0,0,0,396.55,59.1Z"/><path class="cls-5" d="M407.88,71.47a4,4,0,1,1,3.95-4A4,4,0,0,1,407.88,71.47Zm0-6.19a2.24,2.24,0,1,0,2.24,2.24A2.24,2.24,0,0,0,407.88,65.28Z"/><path class="cls-5" d="M379.31,70.39a4,4,0,1,1,3.95-4A4,4,0,0,1,379.31,70.39Zm0-6.18a2.24,2.24,0,1,0,2.23,2.23A2.24,2.24,0,0,0,379.31,64.21Z"/><path class="cls-5" d="M391.33,76.58a4,4,0,1,1,3.95-4A4,4,0,0,1,391.33,76.58Zm0-6.19a2.24,2.24,0,1,0,2.24,2.24A2.24,2.24,0,0,0,391.33,70.39Z"/><path class="cls-5" d="M402.67,82.76a4,4,0,1,1,3.95-4A4,4,0,0,1,402.67,82.76Zm0-6.18a2.24,2.24,0,1,0,2.23,2.23A2.23,2.23,0,0,0,402.67,76.58Z"/><path class="cls-5" d="M373.47,81.69a3.95,3.95,0,1,1,3.95-4A4,4,0,0,1,373.47,81.69Zm0-6.18a2.23,2.23,0,1,0,2.23,2.23A2.23,2.23,0,0,0,373.47,75.51Z"/><path class="cls-5" d="M385.49,87.87a4,4,0,1,1,3.95-4A4,4,0,0,1,385.49,87.87Zm0-6.18a2.24,2.24,0,1,0,2.23,2.23A2.23,2.23,0,0,0,385.49,81.69Z"/><path class="cls-5" d="M396.83,94.06a4,4,0,1,1,3.95-4A4,4,0,0,1,396.83,94.06Zm0-6.19a2.24,2.24,0,1,0,2.23,2.24A2.24,2.24,0,0,0,396.83,87.87Z"/></g><g class="cls-2"><path class="cls-4" d="M120.46,291.94c-2.12-.54-4.3.87-5.6,2.64a8.21,8.21,0,0,0-1.7,4.52,5.69,5.69,0,0,0,1.74,4.41,7.43,7.43,0,0,0,3.82,1.61,7.52,7.52,0,0,0,3,0,5.82,5.82,0,0,0,3.8-3.27,8.36,8.36,0,0,0,.47-5.09,5.76,5.76,0,0,0-1-2.37C124,293,122.1,292.35,120.46,291.94Z"/><path class="cls-4" d="M136.6,275.8a7.74,7.74,0,0,0-5.65,4.8,6.67,6.67,0,0,0,1.74,7.08,8.16,8.16,0,0,0,1.64,1.08,6.48,6.48,0,0,0,4.95.64,5.78,5.78,0,0,0,2.4-1.66,7.61,7.61,0,0,0,1.4-7.9C142,277.24,139.05,275.29,136.6,275.8Z"/><path class="cls-4" d="M161.9,277.37a6.83,6.83,0,0,0-3.54.21,6.76,6.76,0,0,0-2.71,2.72,7.09,7.09,0,0,0-1.46,3.34,5.64,5.64,0,0,0,.69,2.77,7.65,7.65,0,0,0,1.43,2.07,6.05,6.05,0,0,0,7.74.21,7.28,7.28,0,0,0,2.19-7.66,4.65,4.65,0,0,0-2-2.8A6.79,6.79,0,0,0,161.9,277.37Z"/><path class="cls-4" d="M175.88,295.26a6.67,6.67,0,0,0-3.94-.39,5.86,5.86,0,0,0-2,1,7.18,7.18,0,0,0-3,5.25,6.29,6.29,0,0,0,2.46,5.44,6,6,0,0,0,5.71.66,6.46,6.46,0,0,0,3.39-3.59,7.93,7.93,0,0,0,.2-5A4.69,4.69,0,0,0,175.88,295.26Z"/><path class="cls-5" d="M125.53,346.36c-.58,0-1.14,0-1.68-.08h0c-5.62-.54-13.24-4.36-17.58-11.69-3.52-5.94-5.21-13.61-5-22.79.24-11.72,5.35-23.62,14-32.64a46.06,46.06,0,0,1,33.77-14.68c18.94.17,33.47,10.88,37.91,28,2.16,8.31,1.36,15.95-2.25,21.5a23.64,23.64,0,0,1-18.89,10.65c-5.21.14-10.24-1.46-15.37-3.26-2.9-1-5.49-1.79-7.77-.85-3.75,1.54-4.31,6.91-4.38,9.14,0,.64,0,1.29,0,1.94,0,3.43-.05,7-2,9.91C133.9,345.09,129.43,346.36,125.53,346.36ZM124,344.57c3.72.35,8.52-.52,10.84-4.05,1.65-2.51,1.68-5.79,1.71-9q0-1,0-2c.16-5.43,2.14-9.32,5.43-10.68,3.07-1.26,6.5-.06,9,.82,5,1.74,9.84,3.29,14.75,3.16a21.91,21.91,0,0,0,17.5-9.86c3.35-5.15,4.07-12.3,2-20.14-4.24-16.29-18.13-26.51-36.27-26.67-26.56-.23-45.6,23.87-46.06,45.64-.18,8.85,1.42,16.21,4.78,21.87,4,6.78,11.24,10.38,16.26,10.86Z"/><path class="cls-5" d="M123,334.18a5.62,5.62,0,0,1-2.2-.51,10.17,10.17,0,0,1-5.88-9.22,7.35,7.35,0,0,1,.73-3.5,4.64,4.64,0,0,1,2.91-2.43c3-.78,6,1.2,7.48,3.36a11.08,11.08,0,0,1,1.39,3.11,9.09,9.09,0,0,1,.16,5.58,5.09,5.09,0,0,1-4.57,3.61Zm-3-14.12a4,4,0,0,0-1,.12h0a3,3,0,0,0-1.81,1.56,5.62,5.62,0,0,0-.54,2.69,8.52,8.52,0,0,0,4.84,7.66,3.74,3.74,0,0,0,1.54.37A3.42,3.42,0,0,0,126,330a7.45,7.45,0,0,0-.18-4.54,9.26,9.26,0,0,0-1.17-2.64A6,6,0,0,0,120,320.06Zm-1.19-.71h0Z"/></g><g class="cls-2"><path class="cls-4" d="M238.71,327.47c-5-18.15-13.62-35-22.28-51.74a43.85,43.85,0,0,1-9.5,6c10.07,15.68,16.16,33.64,25.83,49.61a27.24,27.24,0,0,0,4.4,5.86c.64.6,1.66,1.15,2.31.56a1.82,1.82,0,0,0,.43-1.14A25,25,0,0,0,238.71,327.47Zm-1.42,4.45a1.16,1.16,0,0,1-1.32.24,1.64,1.64,0,0,1-.43-.44c-.09-.11-.15-.24-.23-.36s-.23-.36-.34-.55a3.5,3.5,0,0,1-.31-.53,2.18,2.18,0,0,1-.19-.91.77.77,0,0,1,.16-.48,1,1,0,0,1,.66-.57,1,1,0,0,1,.68.06,1.91,1.91,0,0,1,1.11,1,5.17,5.17,0,0,1,.51,1.3A1.35,1.35,0,0,1,237.29,331.92Z"/><path class="cls-5" d="M206.72,282.47a.87.87,0,0,1-.79-.42,160.91,160.91,0,0,1-14.05-30.27.86.86,0,1,1,1.62-.56A159.47,159.47,0,0,0,207,280.53a46.87,46.87,0,0,0,9.16-5.28.86.86,0,1,1,1,1.38A48.24,48.24,0,0,1,207,282.4.9.9,0,0,1,206.72,282.47Z"/><path class="cls-5" d="M203.62,276.82a.86.86,0,0,1-.44-1.63,51.6,51.6,0,0,0,9.09-5.78.86.86,0,0,1,1.21.13.87.87,0,0,1-.14,1.21,53.16,53.16,0,0,1-9.39,6A1,1,0,0,1,203.62,276.82Z"/><path class="cls-5" d="M216.93,276.8a.85.85,0,0,1-.78-.41,227.79,227.79,0,0,0-20.83-28.5.86.86,0,0,1,.09-1.21.87.87,0,0,1,1.22.09,230.49,230.49,0,0,1,21,28.72.86.86,0,0,1-.68,1.31Z"/><path class="cls-5" d="M198.31,249.52c-1.73,1.47-3.71,3-6,2.94s-4.31-2-5.51-4.06c-3.64-6.2-2.82-13.94-1.89-21.07,1.58,3.51,4.67,6,7.56,8.58s5.79,5.4,6.72,9.13C199.61,246.62,199.6,248.43,198.31,249.52Z"/></g><g class="cls-2"><path class="cls-4" d="M533.58,253.4,519,249.32c-7.92-1.87-15.81-3.84-23.71-5.82l-12.1-3c-1.47-.37-3.73-.62-4.1-2.45a3.59,3.59,0,0,1,.08-1.26c.08-.48.16-1,.21-1.46.22-2.36.92-2.79,1.31-2.69,4,1,44.15,10.62,49.16,12.32,3.23,1.09,6.48,2.14,9.68,3.31a1.36,1.36,0,0,1,.24.13c.21-1.78,2.19-3.91,2.31-5.7,0-.57-1.77-.84-2.09-1.31a2.69,2.69,0,0,0-1.45-.89c-10.66-3.64-21.59-6.43-32.5-9.22l-24.85-6.36c-2.35-.6-5.06-1.14-7,.28-1.52,4.32-1.56,8.69-1.52,13a14.83,14.83,0,0,0,.89,6c1.61,1.55,3.86,2.17,6,2.72L536,261.41a1.62,1.62,0,0,0,.87.06c.53-.16.74-.79.86-1.33.41-1.75.78-3.51,1.09-5.28Z"/><path class="cls-5" d="M471.66,240.23a.76.76,0,0,1-.21,0c-8.19-2.09-16.66-4.26-24.84-6.4a.86.86,0,0,1-.25-1.55c4.25-2.8,8.65-5.69,13.55-8.37a.92.92,0,0,1,.59-.08l6.1,1.28,6.1,1.28a.86.86,0,0,1-.35,1.68l-6.1-1.28-5.79-1.21c-4.12,2.26-7.9,4.68-11.54,7.07,7.59,2,15.39,4,22.95,5.91a.86.86,0,0,1,.62,1.05A.85.85,0,0,1,471.66,240.23Z"/><path class="cls-5" d="M542.41,267.76h-.16c-2.79-.08-4.88-1.87-6.9-3.59a22.45,22.45,0,0,0-3-2.28,20.8,20.8,0,0,0-5.43-2c-16.71-4.46-34-9.06-51.26-13.55a3.33,3.33,0,0,1-2.81-1.7,7,7,0,0,1-.83-2.86,61.66,61.66,0,0,1,.33-13.39,6.87,6.87,0,0,1,1.16-3.76,4.76,4.76,0,0,1,5.45-1.2c17.54,3.56,35.15,7.9,52.33,12.9a46.06,46.06,0,0,1,11,4.27,17,17,0,0,1,7.8,9,18.29,18.29,0,0,1,.72,6.63,15.91,15.91,0,0,1-1.85,7.42A7.93,7.93,0,0,1,542.41,267.76Zm-66.64-23.15.21,0c17.33,4.51,34.65,9.12,51.4,13.59a22.36,22.36,0,0,1,5.88,2.18,26.42,26.42,0,0,1,3.21,2.45c1.87,1.61,3.65,3.12,5.83,3.18h.12a6.2,6.2,0,0,0,5.05-3.23,13.9,13.9,0,0,0,1.62-6.62,17,17,0,0,0-.64-6,15.37,15.37,0,0,0-7-8.1A45.34,45.34,0,0,0,530.83,238c-17.17-5-34.75-9.33-52.27-12.89l-.17-.05a3.08,3.08,0,0,0-3.52.66,5.38,5.38,0,0,0-.79,2.85,60.33,60.33,0,0,0-.33,13,5.44,5.44,0,0,0,.59,2.18,1.65,1.65,0,0,0,1.37.87Z"/><path class="cls-5" d="M540.74,240.72c-3,8.07-4.22,12.79-7,21.7,2.18,1.95,6.57,4.74,9.46,4.26a6.35,6.35,0,0,0,4-2.76,14.4,14.4,0,0,0,1.92-4.61c1-4,1.38-8.47-.62-12.09C546.63,243.82,544.38,242.16,540.74,240.72Z"/><path class="cls-5" d="M520.11,241.1l-8.72-2.4c-.47-.13-1,.28-1.19.92L508.31,246a1.13,1.13,0,0,0,.53,1.46l8.8,2.62Q519,245.6,520.11,241.1Z"/><path class="cls-5" d="M525.85,242.67l-4.29-1.18c-.76,3-1.58,6-2.48,9l4,1.19c.47.14,1-.25,1.19-.88l2.11-6.63A1.13,1.13,0,0,0,525.85,242.67Z"/></g><g class="cls-2"><path class="cls-5" d="M22.79,295.94c.28-.63,5.35-10.74,5.72-11.51,0-.1,1.18-2.59,1.18-2.59a1,1,0,0,0-.4-1.27l-5.19-3a2.64,2.64,0,0,0-3.63,1.05L12.9,292.83A2.63,2.63,0,0,0,14,296.4l5.85,3a1,1,0,0,0,1.32-.4L22,297.5C22.24,297,22.56,296.47,22.79,295.94Z"/><path class="cls-5" d="M31.81,286.79l-2.29-1.09c-.22.47-.45.95-.66,1.43-.57,1.28-1.15,2.55-1.79,3.79s-1.32,2.59-2,3.87c-.3.57-.61,1.13-.91,1.69l2.31,1.09a1,1,0,0,0,1.3-.45l4.49-9A1,1,0,0,0,31.81,286.79Z"/></g><g class="cls-2"><path class="cls-4" d="M197.2,153.78q-9.57,16.77-18.54,33.86c-1.75,3.34-3.53,7.2-2.2,10.72a5.07,5.07,0,0,0,2.36,2.8c2,1,4.53.08,6.09-1.52a17.6,17.6,0,0,0,3.23-5.83c5.17-12.68,12.38-24.55,16.42-37.64C202.14,155.55,199.78,154.69,197.2,153.78Z"/><path class="cls-5" d="M213.64,155.43c-16.11,0-29.21-12.86-29.21-28.68s13.1-28.69,29.21-28.69,29.2,12.87,29.2,28.69S229.74,155.43,213.64,155.43Zm0-55.65c-15.16,0-27.49,12.09-27.49,27s12.33,27,27.49,27,27.48-12.1,27.48-27S228.79,99.78,213.64,99.78Z"/><path class="cls-5" d="M213.74,149.42a23.36,23.36,0,1,1,23.37-23.36A23.39,23.39,0,0,1,213.74,149.42Zm0-45a21.65,21.65,0,1,0,21.65,21.65A21.67,21.67,0,0,0,213.74,104.41Z"/><path class="cls-5" d="M198.89,136.12a.87.87,0,0,1-.68-.34,15.22,15.22,0,0,1-2.91-7.52,24.18,24.18,0,0,1,.52-7.93.86.86,0,1,1,1.68.36,22.43,22.43,0,0,0-.49,7.37,13.53,13.53,0,0,0,2.56,6.68.86.86,0,0,1-.15,1.2A.87.87,0,0,1,198.89,136.12Z"/><path class="cls-5" d="M203.79,141a.86.86,0,0,1-.41-.1,9.62,9.62,0,0,1-2.62-2.09.86.86,0,0,1,1.3-1.13,7.87,7.87,0,0,0,2.14,1.71.86.86,0,0,1-.41,1.61Z"/><path class="cls-5" d="M231.65,126.11a.85.85,0,0,1-.85-.85,15.63,15.63,0,0,0-3.65-9.83.86.86,0,0,1,1.31-1.11,17.26,17.26,0,0,1,4,10.92.85.85,0,0,1-.85.87Z"/><path class="cls-5" d="M195.54,148.62c-1.28,1.26-1,3.49.11,4.9a11,11,0,0,0,4.44,2.91l1.48.66a9.7,9.7,0,0,0,4.42,1.18,3.37,3.37,0,0,0,3.29-2.68,1.62,1.62,0,0,0,0-.66c-.06-.09-.2.1-.29,0C206.81,153.75,197.07,151.14,195.54,148.62Z"/></g><g class="cls-2"><path class="cls-4" d="M499,130.54a209.32,209.32,0,0,1,29-.63c0-.56.08-1.12.13-1.68a259.29,259.29,0,0,0-37.37,1.33c.05.62.1,1.24.16,1.87C493.59,131.08,496.28,130.78,499,130.54Z"/><path class="cls-4" d="M521,131.15a213.25,213.25,0,0,0-30,1.73c.44,5.43.86,11.15,1.28,16.88a203,203,0,0,1,33.28.42,9.55,9.55,0,0,0,1.2-4.57q.54-7.12,1.1-14.25Q524.44,131.2,521,131.15Z"/><path class="cls-5" d="M510.36,165.41a74.17,74.17,0,0,1-11.61-.91,8.93,8.93,0,0,1-4.5-1.64c-2.06-1.69-2.41-4.54-2.59-7.08l-2.32-34c-.49-7.22,2-9.15,4.22-9.5h0a130.88,130.88,0,0,1,27.89-1.44c2.62.14,5.28.53,7,2.41,2,2.15,1.82,5.28,1.54,8l-4,38.87a3.89,3.89,0,0,1-3.81,4.32A74.49,74.49,0,0,1,510.36,165.41Zm3.87-53.06A130,130,0,0,0,493.84,114h0c-2.71.44-3,4.42-2.78,7.69l2.32,34c.15,2.28.43,4.62,2,5.88a7.67,7.67,0,0,0,3.67,1.27,73.65,73.65,0,0,0,22.91,0,3.28,3.28,0,0,0,1.64-.55,3.52,3.52,0,0,0,.74-2.24l4-38.87c.25-2.51.38-5.09-1.1-6.71s-3.7-1.74-5.8-1.86Q517.81,112.35,514.23,112.35Zm-20.53.77Z"/><path class="cls-5" d="M500.16,112.74a.85.85,0,0,1-.83-.66,61.3,61.3,0,0,1-1.62-11.67,5.91,5.91,0,0,1,.31-2.59c1.05-2.44,4.32-2.71,5.4-2.79a63,63,0,0,1,12.05.2,6.6,6.6,0,0,1,4,1.46c1.35,1.28,1.55,3.19,1.57,5.07,0,3.23-.1,6.49-.39,9.71a.86.86,0,1,1-1.71-.15c.28-3.16.41-6.37.38-9.54,0-1.4-.1-3-1-3.84a5.07,5.07,0,0,0-3-1,60.5,60.5,0,0,0-11.73-.2c-2.22.18-3.52.75-3.95,1.76a4.44,4.44,0,0,0-.18,1.84A59.44,59.44,0,0,0,501,111.68a.86.86,0,0,1-.64,1Z"/><path class="cls-5" d="M503.9,109.19a.85.85,0,0,1-.84-.7,45.7,45.7,0,0,1-.76-8.09.85.85,0,0,1,.85-.86h0a.85.85,0,0,1,.85.85,45.17,45.17,0,0,0,.74,7.79.86.86,0,0,1-.7,1Z"/><path class="cls-5" d="M507.92,109.1a.85.85,0,0,1-.85-.75c-.35-2.8-.58-5.66-.67-8.49a.87.87,0,0,1,.83-.89h0a.87.87,0,0,1,.86.83c.09,2.78.31,5.58.65,8.34a.86.86,0,0,1-.74,1Z"/><path class="cls-5" d="M512.05,108.78a.86.86,0,0,1-.86-.8l-.5-7.85a.86.86,0,0,1,1.71-.11l.51,7.85a.86.86,0,0,1-.8.91Z"/><path class="cls-5" d="M515.87,109.43a.86.86,0,0,1-.86-.82L514.6,100a.86.86,0,0,1,.81-.9.87.87,0,0,1,.9.82l.42,8.58a.87.87,0,0,1-.82.9Z"/><path class="cls-5" d="M501.91,96.67a.76.76,0,0,1-.21,0,.86.86,0,0,1-.62-1c1.4-5.46,3.06-10.93,4.95-16.24.21-.59.84-2.38,2.46-2.48s2.46,1.61,2.74,2.18A111.29,111.29,0,0,1,518,95.43a.86.86,0,1,1-1.63.52,112.47,112.47,0,0,0-6.64-16.15c-.4-.8-.78-1.23-1.1-1.21s-.54.2-.94,1.33c-1.87,5.27-3.52,10.69-4.91,16.1A.85.85,0,0,1,501.91,96.67Z"/><path class="cls-5" d="M507.09,68.81h0a.86.86,0,0,1-.82-.73,9.77,9.77,0,0,0-4.11-6.22,8.14,8.14,0,0,0-6.22-1.54,17.13,17.13,0,0,0-4.47,1.79,14.89,14.89,0,0,1-6.18,2.09,8.19,8.19,0,0,1-5.86-2.34,9.38,9.38,0,0,1-3-6.5c-.13-4.37,2.86-8.7,7.26-10.54a16.11,16.11,0,0,1,12.89.64,21.14,21.14,0,0,1,11.4,22.66A.88.88,0,0,1,507.09,68.81Zm-9.86-10.34a10.34,10.34,0,0,1,5.9,2,12.22,12.22,0,0,1,3.47,3.74A19.48,19.48,0,0,0,495.82,47a14.38,14.38,0,0,0-11.51-.61,9.76,9.76,0,0,0-6.2,8.9,7.76,7.76,0,0,0,2.47,5.3,6.48,6.48,0,0,0,4.63,1.87,13.44,13.44,0,0,0,5.46-1.9,18.79,18.79,0,0,1,4.92-1.95A8.21,8.21,0,0,1,497.23,58.47Z"/><path class="cls-5" d="M516.88,58.46a3.21,3.21,0,0,1-1.8-.61h0a11.16,11.16,0,0,1-3.48-3.12,4.49,4.49,0,0,1,0-5.08,4.11,4.11,0,0,1,4.82-1,6,6,0,0,1,3.06,3.59,5.87,5.87,0,0,1,0,4.29,3.05,3.05,0,0,1-1.89,1.79A2.46,2.46,0,0,1,516.88,58.46Zm-.85-2a1.33,1.33,0,0,0,1.08.28,1.43,1.43,0,0,0,.79-.84,4.15,4.15,0,0,0-.06-3,4.45,4.45,0,0,0-2.15-2.61,2.4,2.4,0,0,0-2.77.49,2.77,2.77,0,0,0,.13,3.08,9.83,9.83,0,0,0,3,2.62Z"/></g><g class="cls-2"><path class="cls-5" d="M587.76,373.3h0l-95.29-.59a.86.86,0,0,1-.86-.86V355.69a.85.85,0,0,1,.85-.86l12.2-.12c.46-12.2,6.15-23.58,15.32-30.57,10.32-7.87,25.24-9.73,36.28-4.53a34,34,0,0,1,15.9,16.28c2.75,5.78,4.23,12.45,4.63,20.93l11-.32a.85.85,0,0,1,.62.24.87.87,0,0,1,.26.62v15.08a.85.85,0,0,1-.86.86ZM493.33,371l93.57.58V358.25l-10.91.32a.86.86,0,0,1-.88-.83c-.34-8.65-1.76-15.35-4.5-21.11a32.2,32.2,0,0,0-15.08-15.46C545,316.23,530.85,318,521,325.51c-9,6.83-14.45,18.07-14.67,30.06a.86.86,0,0,1-.85.85l-12.17.12Zm63.75-13.33c-2.67,0-5.26,0-7.8-.09h0c-.53,0-1.14,0-1.73,0a11.3,11.3,0,0,1-2.64-.07.86.86,0,0,1-.65-.9,2.62,2.62,0,0,0-1.25-2.48,2.8,2.8,0,0,0-2.86-.15,2.87,2.87,0,0,0-1.33,2.51.86.86,0,0,1-.9.8c-6-.28-11.61-.42-18.31-.46a.86.86,0,0,1-.85-1,41.68,41.68,0,0,1,4.61-14.62,21.12,21.12,0,0,1,4.38-6,19,19,0,0,1,9.87-4.36c8.28-1.29,17,2,21.32,8,3.82,5.36,4,12.24,4.24,17.76a.85.85,0,0,1-.83.89C560.55,357.65,558.8,357.67,557.08,357.67Zm-7.77-1.81c3.89.07,7.91.15,12.12.05-.18-5.14-.56-11.29-3.89-16-3.91-5.48-12-8.47-19.66-7.28a17.61,17.61,0,0,0-9,3.94,19.38,19.38,0,0,0-4,5.5,39.89,39.89,0,0,0-4.3,13.06c6,0,11.21.18,16.62.42a4.34,4.34,0,0,1,2.08-3.05,4.5,4.5,0,0,1,4.71.24,4.37,4.37,0,0,1,2,3.17c.44,0,1,0,1.51,0s1.25,0,1.83,0Z"/><path class="cls-5" d="M541,331.93a.86.86,0,0,1-.85-.77l-.35-3.42a.86.86,0,1,1,1.71-.17l.35,3.42a.87.87,0,0,1-.77.94Z"/><path class="cls-5" d="M567.25,357.58h0l-4.58,0a.86.86,0,0,1,0-1.72h0l4.59,0a.86.86,0,0,1,0,1.72Z"/><path class="cls-5" d="M515.18,357.08a.86.86,0,0,1-.07-1.71c.84-.07,1.61-.09,2.36-.11s1.47,0,2.27-.11a.86.86,0,0,1,.13,1.72c-.84.06-1.61.08-2.35.11s-1.48,0-2.28.1Z"/><path class="cls-5" d="M555.65,336.05a.81.81,0,0,1-.45-.13.86.86,0,0,1-.28-1.19l1.57-2.51a.87.87,0,0,1,1.19-.27.86.86,0,0,1,.27,1.18l-1.57,2.52A.85.85,0,0,1,555.65,336.05Z"/><path class="cls-5" d="M561.47,346.32a.86.86,0,0,1-.16-1.7l3.12-.61a.87.87,0,0,1,1,.69.85.85,0,0,1-.68,1l-3.12.61Z"/><path class="cls-5" d="M529.35,335.76a.83.83,0,0,1-.71-.38l-1.79-2.61a.86.86,0,1,1,1.42-1l1.79,2.62a.86.86,0,0,1-.23,1.19A.87.87,0,0,1,529.35,335.76Z"/><path class="cls-5" d="M521.4,346.82a.94.94,0,0,1-.46-.13,7.8,7.8,0,0,0-2.79-1.06.86.86,0,1,1,.29-1.69,9.53,9.53,0,0,1,3.41,1.29.86.86,0,0,1-.45,1.59Z"/></g><g class="cls-2"><path class="cls-5" d="M339.17,26.53a63.28,63.28,0,0,0,2.17-6.42.4.4,0,0,1,.77,0c.69,2.05,1.59,3.77,2.48,6.24a.43.43,0,0,0,.34.27c1.54.19,4.45.3,6.22.45a.4.4,0,0,1,.19.74l-4.59,3.08a.53.53,0,0,0-.21.21.51.51,0,0,0,0,.4c.72,1.85,1.44,3.69,2.15,5.54a.4.4,0,0,1-.56.51,57.6,57.6,0,0,1-5.43-3.17.41.41,0,0,0-.51,0q-2,2.09-4.26,4a.4.4,0,0,1-.66-.36c.21-1.92.2-3.92.55-5.9a.42.42,0,0,0-.21-.43c-2.09-1.1-3.75-2.1-5.73-3.19a.4.4,0,0,1,.14-.75c2.27-.32,4.55-.6,6.79-.94A.39.39,0,0,0,339.17,26.53Z"/></g><g class="cls-2"><path class="cls-5" d="M91.46,359.12a62.21,62.21,0,0,0,2.16-6.42.4.4,0,0,1,.77,0c.7,2,1.59,3.76,2.49,6.24a.42.42,0,0,0,.33.27c1.55.18,4.45.29,6.22.44a.41.41,0,0,1,.19.74L99,363.45a.52.52,0,0,0-.22.22.54.54,0,0,0,.05.39q1.06,2.78,2.15,5.54a.41.41,0,0,1-.56.51A53.67,53.67,0,0,1,95,366.94a.41.41,0,0,0-.51.06,57,57,0,0,1-4.26,4,.41.41,0,0,1-.66-.36c.22-1.92.21-3.92.55-5.91a.39.39,0,0,0-.21-.42c-2.09-1.11-3.74-2.11-5.73-3.19a.41.41,0,0,1,.14-.76c2.28-.31,4.56-.6,6.8-.93A.44.44,0,0,0,91.46,359.12Z"/></g><g class="cls-2"><path class="cls-5" d="M385.37,356.77a62.91,62.91,0,0,0,2.16-6.41.41.41,0,0,1,.78,0c.69,2,1.58,3.77,2.48,6.24a.4.4,0,0,0,.33.27c1.55.19,4.46.3,6.22.45a.4.4,0,0,1,.19.74L393,361.11a.45.45,0,0,0-.22.21.56.56,0,0,0,0,.4q1.07,2.76,2.15,5.54a.41.41,0,0,1-.56.51,57.71,57.71,0,0,1-5.44-3.17.4.4,0,0,0-.51,0,57,57,0,0,1-4.26,4,.41.41,0,0,1-.66-.36c.22-1.92.21-3.92.55-5.9a.4.4,0,0,0-.21-.43c-2.09-1.11-3.74-2.11-5.73-3.19a.4.4,0,0,1,.14-.75c2.28-.32,4.56-.6,6.8-.94A.42.42,0,0,0,385.37,356.77Z"/></g><g class="cls-2"><path class="cls-5" d="M538.53,205.15a62.91,62.91,0,0,0,2.16-6.41.41.41,0,0,1,.78,0c.69,2,1.58,3.76,2.48,6.24a.43.43,0,0,0,.34.27c1.54.18,4.45.29,6.22.44a.41.41,0,0,1,.19.74l-4.59,3.08a.56.56,0,0,0-.21.22.49.49,0,0,0,0,.39l2.15,5.55a.41.41,0,0,1-.56.51,57,57,0,0,1-5.44-3.18.39.39,0,0,0-.5.06q-2,2.08-4.26,4a.41.41,0,0,1-.66-.36c.21-1.92.2-3.92.54-5.91a.4.4,0,0,0-.2-.42c-2.09-1.11-3.75-2.11-5.73-3.19a.41.41,0,0,1,.13-.76c2.28-.31,4.56-.6,6.8-.93A.42.42,0,0,0,538.53,205.15Z"/></g><g class="cls-2"><path class="cls-4" d="M571.25,141.49q-1-30.33-4-60.55c-3.63.36-7.26.72-10.92.78,1.77,20,3.35,40.13,4.89,60.49C564.57,141.84,567.91,141.6,571.25,141.49Z"/><path class="cls-4" d="M561.36,143.58l.24,3.25a32.8,32.8,0,0,0,9.78-1.35l-.09-2.62Q566.31,143,561.36,143.58Z"/><path class="cls-5" d="M556.06,76.19a.85.85,0,0,1-.85-.8,341.1,341.1,0,0,0-5.53-41.86.88.88,0,0,1,.68-1,.86.86,0,0,1,1,.68,342.57,342.57,0,0,1,5.55,42.07.87.87,0,0,1-.8.92Z"/><path class="cls-5" d="M560.67,75.45a.85.85,0,0,1-.85-.79,421.26,421.26,0,0,0-5.42-42.19.86.86,0,1,1,1.69-.31,422.11,422.11,0,0,1,5.44,42.36.86.86,0,0,1-.79.93Z"/><path class="cls-5" d="M565,75.64a.85.85,0,0,1-.85-.79,409,409,0,0,0-5.56-42.57.86.86,0,0,1,.69-1,.85.85,0,0,1,1,.69,409.36,409.36,0,0,1,5.58,42.75.86.86,0,0,1-.79.92Z"/><path class="cls-5" d="M553.29,82.62a.86.86,0,0,1-.85-.78s-.36-4-.62-5.69L545,30.75c-.3-2,.72-3.38,3-4a34,34,0,0,1,12-1.14,5.17,5.17,0,0,1,2.38.65,5.28,5.28,0,0,1,2,3.67C568.64,50.63,570,79.42,570,79.71a.86.86,0,0,1-.63.87c-.26.07-2.53.69-3.38.79l-6.69.77c-1.51.17-5.79.47-6,.48ZM546.73,30.5l6.79,45.4c.19,1.28.43,3.68.55,4.95,1.36-.1,4-.29,5.07-.42l6.69-.77c.45,0,1.62-.34,2.45-.56-.24-4.5-1.72-30-5.6-48.85a3.88,3.88,0,0,0-1.2-2.57,3.5,3.5,0,0,0-1.6-.38,32.2,32.2,0,0,0-11.35,1.07C547.05,28.79,546.56,29.36,546.73,30.5Z"/><path class="cls-5" d="M562.81,147.07c-.47,0-.94,0-1.41,0a.85.85,0,0,1-.83-.8c-1.39-23.3-3-44.37-5-64.4a.86.86,0,0,1,1.71-.17c1.94,19.83,3.55,40.67,4.93,63.67a53.53,53.53,0,0,0,8.49-.59.86.86,0,1,1,.25,1.7A54.27,54.27,0,0,1,562.81,147.07Z"/><path class="cls-5" d="M571,146.39a.85.85,0,0,1-.85-.86A583.18,583.18,0,0,0,566.46,81a.87.87,0,0,1,.76-1,.86.86,0,0,1,.95.76,584.35,584.35,0,0,1,3.71,64.78.85.85,0,0,1-.85.86Z"/><path class="cls-5" d="M562.67,146.48a6.94,6.94,0,0,0,.23,1.87,1.46,1.46,0,0,0,.3.64,1.52,1.52,0,0,0,1,.34,16.84,16.84,0,0,0,4.64-.28,1.76,1.76,0,0,0,.39-.12c.43-.24.5-.83.49-1.32a12.44,12.44,0,0,0-.11-1.37.54.54,0,0,0-.11-.28.48.48,0,0,0-.39-.08l-4.46.39C564,146.33,563.36,146.38,562.67,146.48Z"/></g><g class="cls-2"><path class="cls-5" d="M505.73,200.16a3.81,3.81,0,0,1-2.52-1,3.66,3.66,0,0,1-1.22-2.94,4.09,4.09,0,0,1,.84-2.16,3.93,3.93,0,0,1,3.4-1.61,3,3,0,0,1,2.76,2.79c.12,3.84-1.67,4.71-2.74,4.89A3,3,0,0,1,505.73,200.16Zm.2-6a2.29,2.29,0,0,0-1.73.94,2.44,2.44,0,0,0-.5,1.25,2.11,2.11,0,0,0,2.27,2.09c1.15-.19,1.35-1.82,1.31-3.15h0a1.33,1.33,0,0,0-1.21-1.13Z"/></g><g class="cls-2"><path class="cls-5" d="M558.4,185.35h-.3a3.64,3.64,0,0,1-3-4.51,3.52,3.52,0,0,1,2.24-2.26,3.63,3.63,0,0,1,3.27.33,3.52,3.52,0,0,1,1.32,2.57,3.43,3.43,0,0,1-1,2.79A3.53,3.53,0,0,1,558.4,185.35Zm.26-5.3a2.25,2.25,0,0,0-.76.13,1.84,1.84,0,0,0-1.18,1.14,1.74,1.74,0,0,0,2.94,1.74,1.74,1.74,0,0,0,.53-1.39,2,2,0,0,0-.57-1.35h0A1.74,1.74,0,0,0,558.66,180.05Z"/></g><g class="cls-2"><path class="cls-5" d="M504.63,29.76l-.31,0a3.42,3.42,0,0,1-2.51-1.56,3.48,3.48,0,0,1-.51-2.94A3.56,3.56,0,0,1,503.54,23a3.67,3.67,0,0,1,3.27.33h0a3.51,3.51,0,0,1,1.31,2.57,3.44,3.44,0,0,1-1,2.8A3.51,3.51,0,0,1,504.63,29.76Zm.25-5.31a2.31,2.31,0,0,0-.76.14,1.65,1.65,0,0,0-.89,2.63,1.8,1.8,0,0,0,1.26.81,1.9,1.9,0,0,0,1.93-2,2,2,0,0,0-.57-1.35h0A1.68,1.68,0,0,0,504.88,24.45Z"/></g><g class="cls-2"><path class="cls-5" d="M35.79,32.55h-.3A3.47,3.47,0,0,1,33,31,3.51,3.51,0,0,1,32.46,28a3.6,3.6,0,0,1,2.25-2.27A3.64,3.64,0,0,1,38,26.1a3.54,3.54,0,0,1,1.31,2.56,3.44,3.44,0,0,1-1,2.8A3.51,3.51,0,0,1,35.79,32.55Zm.26-5.31a2.27,2.27,0,0,0-.76.14,1.84,1.84,0,0,0-1.18,1.14,1.94,1.94,0,0,0,1.55,2.31,1.91,1.91,0,0,0,1.93-2A2,2,0,0,0,37,27.52h0A1.78,1.78,0,0,0,36.05,27.24Z"/></g><g class="cls-2"><path class="cls-5" d="M373.52,325.58a3.74,3.74,0,0,1-3-1.51,3.48,3.48,0,0,1-.05-4c1.06-1.52,3-1.77,4.43-1.82a.59.59,0,0,1,.19,0c1.2.23,2.3,2,2.23,3.65a3.92,3.92,0,0,1-3.16,3.58A4.21,4.21,0,0,1,373.52,325.58Zm1.26-5.57c-1.53.08-2.46.42-2.92,1.08a1.78,1.78,0,0,0,0,2,2,2,0,0,0,2,.76,2.19,2.19,0,0,0,1.73-2A2.45,2.45,0,0,0,374.78,320Zm-.06,0Z"/></g><g class="cls-2"><path class="cls-5" d="M294.38,154.54a3.77,3.77,0,0,1-1.66-.37,3.45,3.45,0,0,1-2-3.88c.66-2.38,3.74-2.76,4.75-2.89h0a2.24,2.24,0,0,1,2,1,4,4,0,0,1,.64,3.75,3.76,3.76,0,0,1-2.17,2.11A4.19,4.19,0,0,1,294.38,154.54Zm1.33-5.43c-2,.24-3.06.78-3.3,1.63a1.79,1.79,0,0,0,1,1.88,2.3,2.3,0,0,0,1.84,0,2,2,0,0,0,1.2-1.12,2.3,2.3,0,0,0-.29-1.94C296,149.21,295.75,149.11,295.71,149.11Z"/></g><g class="cls-2"><path class="cls-5" d="M140.75,379.92a3.77,3.77,0,0,1-1.66-.37,3.44,3.44,0,0,1-2-3.88c.65-2.38,3.73-2.76,4.74-2.88h0a2.2,2.2,0,0,1,2,1,4,4,0,0,1,.64,3.76,3.79,3.79,0,0,1-2.16,2.1A4.28,4.28,0,0,1,140.75,379.92Zm1.33-5.43c-2,.24-3.06.78-3.3,1.63a1.8,1.8,0,0,0,1.05,1.88,2.3,2.3,0,0,0,1.84,0,2,2,0,0,0,1.2-1.12,2.31,2.31,0,0,0-.29-1.94A1.06,1.06,0,0,0,142.08,374.49Z"/></g><g class="cls-2"><path class="cls-5" d="M144.58,244.72a3.8,3.8,0,0,1-1.66-.37,3.47,3.47,0,0,1-2-3.89c.65-2.38,3.74-2.75,4.75-2.88h0a2.19,2.19,0,0,1,2,1,4,4,0,0,1,.64,3.75,3.76,3.76,0,0,1-2.17,2.11A4.28,4.28,0,0,1,144.58,244.72Zm1.33-5.43c-2,.24-3.06.77-3.29,1.63a1.8,1.8,0,0,0,1,1.88,2.3,2.3,0,0,0,1.84,0,2,2,0,0,0,1.2-1.13,2.32,2.32,0,0,0-.29-1.93C146.17,239.39,146,239.29,145.91,239.29Z"/></g><g class="cls-2"><path class="cls-5" d="M129.72,70.79a4,4,0,0,1-1.33-.23,2.94,2.94,0,0,1-1.73-1.63c-.71-1.78.35-3.66,3-5.31h0a1.73,1.73,0,0,1,1.6,0,3.75,3.75,0,0,1-1.53,7.19Zm.74-5.64c-.77.49-2.71,1.89-2.21,3.14A1.27,1.27,0,0,0,129,69a2.18,2.18,0,0,0,1.7-.1,2.21,2.21,0,0,0,1.2-2.36A2.25,2.25,0,0,0,130.46,65.15Zm.1-.07Z"/></g><g class="cls-2"><path class="cls-5" d="M27.57,241.46a3.34,3.34,0,0,1-.89-.11,3.26,3.26,0,0,1-1.75-1.12,3.47,3.47,0,0,1,0-3.89A8.36,8.36,0,0,1,27.45,234h0a1.84,1.84,0,0,1,2,0,4.41,4.41,0,0,1,2.05,3.87,3.85,3.85,0,0,1-1.66,2.8A4,4,0,0,1,27.57,241.46Zm.84-6a6.93,6.93,0,0,0-2,1.82,1.8,1.8,0,0,0-.11,1.94,1.5,1.5,0,0,0,.83.5,2.32,2.32,0,0,0,2.71-1.93,2.75,2.75,0,0,0-.82-1.95A1.26,1.26,0,0,0,28.41,235.43Z"/></g><g class="cls-2"><path class="cls-5" d="M52.15,234.77a.86.86,0,0,1-.8-.54,159.62,159.62,0,0,1-10.71-43.08,77.23,77.23,0,0,1-.49-11.75c.09-1.84.44-4.42,2.44-5.64a5,5,0,0,1,5.52.68,12,12,0,0,1,3,4.25c3.42,6.9,6.26,14.19,9,21.24,3.57,9.16,7.26,18.63,12.23,27.25a.86.86,0,1,1-1.48.86c-5-8.73-8.76-18.27-12.35-27.49-2.74-7-5.56-14.27-9-21.1A10.68,10.68,0,0,0,47,175.78a3.31,3.31,0,0,0-3.56-.55c-1,.6-1.5,2-1.61,4.25a75.28,75.28,0,0,0,.48,11.5A157.47,157.47,0,0,0,53,233.59a.86.86,0,0,1-.8,1.18Z"/><path class="cls-5" d="M62.32,209.64h0A10.4,10.4,0,0,1,57,208.49c-1.82-1.15-2.72-3.11-3.55-5.18a294.12,294.12,0,0,1-9.79-28.76.86.86,0,1,1,1.65-.47A294.26,294.26,0,0,0,55,202.67c.72,1.8,1.48,3.49,2.87,4.37a8.86,8.86,0,0,0,4.46.88.86.86,0,0,1,0,1.72Z"/><path class="cls-5" d="M56.72,223.19a2.06,2.06,0,0,1-.35,0,3.27,3.27,0,0,1-2.66-4.06,3.47,3.47,0,0,1,.68-1.25,3.72,3.72,0,0,1,2.34-1.24h0a2.63,2.63,0,0,1,1.88.73,3.67,3.67,0,0,1,1.33,2.52,3.14,3.14,0,0,1-1.06,2.44A3.19,3.19,0,0,1,56.72,223.19Zm.2-4.86a1.92,1.92,0,0,0-1.22.66,1.7,1.7,0,0,0-.35.61,1.5,1.5,0,0,0,.23,1.19,1.45,1.45,0,0,0,2.64-.84A2.06,2.06,0,0,0,56.92,218.33Z"/><path class="cls-4" d="M74.74,255.28c-.82-1.66-1.67-3.31-2.52-5q-5.5-9.37-10.82-18.88a107.12,107.12,0,0,1-12.17.26c2.45,6,6.14,12,8.11,16.21a12.35,12.35,0,0,0-7.54,2.19,10.47,10.47,0,0,0-4.52,7.25,11.52,11.52,0,0,0,.73,5.09A17.12,17.12,0,0,0,57.1,272.65a20.58,20.58,0,0,0,15.17-1.57A10.17,10.17,0,0,0,76,268.16a8.62,8.62,0,0,0,1.16-6.53A24.1,24.1,0,0,0,74.74,255.28Zm-6.06,7.09a6,6,0,0,1-5.6,5.29,8,8,0,0,1-7-3.84,7.66,7.66,0,0,1-1-6.35,5.62,5.62,0,0,1,4.83-4c2.79-.14,5.63,1.65,7.3,4.21A7.79,7.79,0,0,1,68.68,262.37Z"/><path class="cls-4" d="M77.52,256.53A12.92,12.92,0,0,0,80,259.38a12.07,12.07,0,0,0,5.14,2.48,7.78,7.78,0,0,0,1.18.06,9.9,9.9,0,0,0,2.91-.47,15.35,15.35,0,0,0,2.59-1.31c.32-.17.64-.35,1-.54A20.24,20.24,0,0,0,100.29,249a17.12,17.12,0,0,0-2.68-14.84,11.43,11.43,0,0,0-3.91-3.34,10.5,10.5,0,0,0-8.54-.07,12.37,12.37,0,0,0-5.89,5.2c-2.5-3.92-5.58-10.24-9.34-15.54a108.08,108.08,0,0,1-6.87,10.32q2.79,5.63,5.8,11.13,4.23,7.35,8.58,14.61A1,1,0,0,1,77.52,256.53ZM82.65,241a5.63,5.63,0,0,1,5.92-2,7.74,7.74,0,0,1,4.83,4.25,8,8,0,0,1-.52,8,6.05,6.05,0,0,1-7.47,1.89,7.82,7.82,0,0,1-3.12-3.75C81,246.68,81,243.33,82.65,241Z"/></g><g class="cls-2"><path class="cls-5" d="M150.69,176.49h-.09a325.34,325.34,0,0,0-55.53-.9.93.93,0,0,1-.64-.22.89.89,0,0,1-.28-.61c-.71-21.09-1.57-42.39-2.41-63q-.33-8.39-.67-16.78a.85.85,0,0,1,.81-.89c19.05-1,37.5-1.13,56.4-.39a.87.87,0,0,1,.83.83l2.44,81.08a.91.91,0,0,1-.28.66A.85.85,0,0,1,150.69,176.49Zm-33.25-3.41c10.76,0,21.59.53,32.36,1.6l-2.39-79.3c-18.29-.69-36.17-.57-54.59.37q.32,8,.64,15.93C94.28,132,95.13,153,95.84,173.8Q106.57,173.08,117.44,173.08Z"/><path class="cls-5" d="M101.55,89.32a2.32,2.32,0,0,0-2.13,1.31,4.2,4.2,0,0,0-.28,1.45,14.63,14.63,0,0,0,.47,4.42,3.72,3.72,0,0,0,.87,1.75,1.53,1.53,0,0,0,1.8.34,2.29,2.29,0,0,0,.78-1.9,38.79,38.79,0,0,0,0-4.7,4.1,4.1,0,0,0-.29-1.51C102.56,90,102.21,89.35,101.55,89.32Z"/><path class="cls-5" d="M113.68,89.59a2.07,2.07,0,0,0-1.8,1.34,5.14,5.14,0,0,0-.26,2.34,18.3,18.3,0,0,0,.44,2.94c.21.9.71,2,1.64,2,.74,0,1.27-.72,1.54-1.41a11.63,11.63,0,0,0,.49-4.12,4.45,4.45,0,0,0-.27-1.82A2,2,0,0,0,113.68,89.59Z"/><path class="cls-5" d="M126.79,89.67a2.45,2.45,0,0,0-1.48.45,2.17,2.17,0,0,0-.57,1.47,17.66,17.66,0,0,0,.24,4,4,4,0,0,0,.6,1.84,1.42,1.42,0,0,0,1.71.55,2.16,2.16,0,0,0,.84-1.47,11.5,11.5,0,0,0,.29-5.27A1.91,1.91,0,0,0,126.79,89.67Z"/><path class="cls-5" d="M138.88,90.25c-.66.11-1.36.1-1.74.65a3.66,3.66,0,0,0-.55,1.89,10,10,0,0,0,.65,4.67,2.61,2.61,0,0,0,.6.93,1.11,1.11,0,0,0,1,.3c.57-.15.82-.8.95-1.38a26.23,26.23,0,0,0,.51-4.6,4,4,0,0,0-.18-1.8A1.07,1.07,0,0,0,138.88,90.25Z"/><path class="cls-4" d="M100.93,111.59a.86.86,0,0,1-.86-.85.87.87,0,0,1,.85-.87c15.2-.2,26.31-.31,38.33-.37h0a.86.86,0,0,1,0,1.72c-12,.06-23.12.17-38.32.37Z"/><path class="cls-4" d="M101.12,125.66a.86.86,0,1,1,0-1.71c5.7,0,13.13-.14,20.3-.28s13.74-.26,18.79-.26a.86.86,0,0,1,0,1.72c-5,0-11.7.12-18.75.26S106.84,125.66,101.12,125.66Z"/><path class="cls-4" d="M101.73,139.26a.86.86,0,0,1,0-1.72l38.45-.19h0a.86.86,0,0,1,.86.85.85.85,0,0,1-.86.86l-38.45.2Z"/><path class="cls-4" d="M103.14,153.32a.85.85,0,0,1-.85-.85.86.86,0,0,1,.84-.87l37.58-.45h0a.86.86,0,0,1,0,1.72l-37.58.45Z"/></g><g class="cls-2"><path class="cls-5" d="M274.28,284.61a4.43,4.43,0,0,1-2.71-1.27,47.86,47.86,0,0,1-16.43-30.65c-.72-6.16-.21-12.44.29-18.51l.09-1.1c1.23-15.32,2-30.9,2.26-46.28a.86.86,0,0,1,.86-.84h0a.86.86,0,0,1,.85.87c-.27,15.42-1,31-2.27,46.39l-.09,1.1c-.49,6-1,12.18-.29,18.18A46.09,46.09,0,0,0,272.68,282l.17.13c-5.23-10.59-6.36-22.61-7.05-34.07a534.25,534.25,0,0,1-.36-57.3.86.86,0,0,1,.9-.82.87.87,0,0,1,.82.9,528.33,528.33,0,0,0,.36,57.12c.72,12,1.92,24.56,7.86,35.31a.86.86,0,0,1-.58,1.26A2.29,2.29,0,0,1,274.28,284.61Z"/><path class="cls-5" d="M298.3,277.79a.89.89,0,0,1-.56-.2.87.87,0,0,1-.3-.72c.86-12.25-3.35-24.18-7.73-35.34a470.37,470.37,0,0,0-22.35-48.93.86.86,0,0,1,1.52-.8,469.43,469.43,0,0,1,22.42,49.1c4.2,10.68,8.24,22.06,8,33.87l.09-.19a46.08,46.08,0,0,0,1.93-33.46c-1.89-5.73-4.95-11.13-7.91-16.35l-.55-1c-7.59-13.41-14.86-27.25-21.59-41.12a.86.86,0,1,1,1.54-.75c6.72,13.84,14,27.64,21.54,41l.55,1c3,5.3,6.11,10.77,8.05,16.67a47.82,47.82,0,0,1-2,34.71,3.92,3.92,0,0,1-2.41,2.47Z"/><path class="cls-5" d="M301.19,236.81a25.46,25.46,0,0,0,2.78-1.25,3.36,3.36,0,0,1-.31-1.78,1.26,1.26,0,0,1,1.25-1.1c.62.07,1,.71,1.24,1.29,1,2.13,1.73,4.34,2.5,6.54a2.57,2.57,0,0,1,.17,1.84,1.27,1.27,0,0,1-2.42-.66l-3.14.94Z"/><path class="cls-4" d="M274.42,182.75c-.95-4-1.77-7.57-3.09-11.42-.29-.39-.91-.34-1.36-.23-1.57.35-4.48,1.1-4.74,1.13-1.38-5.28-2.76-10.37-4.14-15.65-.33-1.23-.76-2.61-2-3.2a4.86,4.86,0,0,0-3.38.06c-1.2.35-2.51.93-2.89,2a3.4,3.4,0,0,0,0,1.87c.28,1.34.66,2.65,1,4,1.21,4.24,2.43,8.48,3.64,12.75-.25.09-3.56.84-5.14,1.41a1,1,0,0,0-.67,1.18c1,3.7,1.72,6.81,2.93,10.45a15.91,15.91,0,0,0,2.83,5.65,19.5,19.5,0,0,0,3.15,2.7,10.49,10.49,0,0,0,2.29,1.4,6.88,6.88,0,0,0,2.39.43,9,9,0,0,0,7.12-3.28,16.07,16.07,0,0,0,2.47-8.47A14.81,14.81,0,0,0,274.42,182.75Zm-11.88-2.35a2,2,0,0,1-.64-.07.77.77,0,0,1-.27-.07,1,1,0,0,1-.4-.22,1.27,1.27,0,0,1-.21-.25.54.54,0,0,1-.1-.16,1.38,1.38,0,0,1-.17-.48,1.44,1.44,0,0,1,0-.62,1.75,1.75,0,0,1,.3-.65,1.61,1.61,0,0,1,.24-.36l.07-.06h0l.09-.07,0,0A1.34,1.34,0,0,1,262,177l.18,0,.21,0h.07l.31,0h0l.15,0a.58.58,0,0,1,.14,0,1.66,1.66,0,0,1,.37.11l.06,0a1.7,1.7,0,0,1,.26.18,1.44,1.44,0,0,1,.35.43l0,0a1,1,0,0,1,.18.32s0,.09.05.13a.32.32,0,0,1,0,.16.55.55,0,0,1,0,.16v.09a.88.88,0,0,1,0,.17.44.44,0,0,1,0,.17c0,.06,0,.13-.08.2l0,0a1.78,1.78,0,0,1-.17.4,2.78,2.78,0,0,1-.21.27l-.22.16,0,0-.05,0a1.75,1.75,0,0,1-.43.17h0A1.89,1.89,0,0,1,262.54,180.4Zm4.42,7.11a.74.74,0,0,1,0,.14,2.72,2.72,0,0,1-.16.35l-.15.17-.09.13a1.3,1.3,0,0,1-.15.18,1.66,1.66,0,0,1-.3.22l0,0a.82.82,0,0,1-.24.1.47.47,0,0,1-.15.06,1.11,1.11,0,0,1-.6,0,.85.85,0,0,1-.35-.15h0l.08.05-.08,0-.09,0a1.65,1.65,0,0,1-.43-.26,2.34,2.34,0,0,1-.37-.4,1.19,1.19,0,0,1-.22-.47,1.59,1.59,0,0,1-.06-.38,1.21,1.21,0,0,1,.08-.42l0,.05c.06-.13.09-.26.16-.38l0,0a.74.74,0,0,1,.09-.12,2.43,2.43,0,0,1,.14-.2,1.3,1.3,0,0,1,.57-.33,1.89,1.89,0,0,1,.58-.08,1.11,1.11,0,0,1,.48.09h.11a1,1,0,0,1,.38.17,1.37,1.37,0,0,1,.2.13h0l.22.15a2.18,2.18,0,0,1,.25.28c.05.08.13.25.15.29s0,.11,0,.18A1.51,1.51,0,0,1,267,187.51Z"/></g><g class="cls-2"><path class="cls-5" d="M35.22,330.21a.86.86,0,0,1-.85-.72A41,41,0,0,1,33.63,318c.51-4.57,2.53-8.48,5.54-10.74,3.47-2.59,7.95-3,11.89-3.15a15.89,15.89,0,0,1,5.11.36,11.66,11.66,0,0,1,7.18,6.89,33.06,33.06,0,0,1,2.06,9.53c.12,1,.19,1.76.26,2.5s.15,1.46.26,2.47a.86.86,0,0,1-.76.95.87.87,0,0,1-1-.76c-.11-1-.18-1.75-.26-2.49s-.14-1.47-.26-2.48a31.79,31.79,0,0,0-1.93-9,10,10,0,0,0-6.07-5.93,14.6,14.6,0,0,0-4.57-.3c-3.68.16-7.86.52-10.93,2.82-2.64,2-4.41,5.45-4.87,9.55a39.13,39.13,0,0,0,.74,11,.88.88,0,0,1-.71,1Z"/><path class="cls-5" d="M41.74,307.33a.86.86,0,0,1-.84-.68,42.37,42.37,0,0,1-.91-8.91.85.85,0,0,1,.66-.83,88.19,88.19,0,0,1,11.07-1.86.85.85,0,0,1,.91.63,77.77,77.77,0,0,1,1.79,8.39.86.86,0,1,1-1.7.26c-.39-2.51-.91-5-1.55-7.49a84.11,84.11,0,0,0-9.46,1.59,39.92,39.92,0,0,0,.87,7.86.87.87,0,0,1-.67,1Z"/><path class="cls-5" d="M41.4,303a.86.86,0,0,1-.17-1.7c3.69-.77,7.47-1.36,11.22-1.77a.86.86,0,1,1,.18,1.71c-3.69.4-7.41,1-11.05,1.74A.55.55,0,0,1,41.4,303Z"/><path class="cls-5" d="M30.18,378.33c-2.37,0-4.53-2-5.4-4.26a9.71,9.71,0,0,1,0-6.82c.61-1.64,2.08-3.21,3.88-2.8,1.58.36,2.29,2,2.43,3.43a8.78,8.78,0,0,1-1.31,5.52.86.86,0,0,1-1.18.27.84.84,0,0,1-.27-1.18,7.08,7.08,0,0,0,1.05-4.44c-.08-.85-.45-1.78-1.1-1.92s-1.53.74-1.89,1.72a8,8,0,0,0,0,5.6c.72,1.86,2.63,3.57,4.46,3.07,1.55-.42,2.57-2.15,3.12-5.3a105.08,105.08,0,0,0,1.55-19.72.86.86,0,0,1,.84-.87.88.88,0,0,1,.88.85,106,106,0,0,1-1.58,20c-.25,1.42-1,5.75-4.36,6.66A4.24,4.24,0,0,1,30.18,378.33Z"/><path class="cls-5" d="M28.31,366.15a.86.86,0,0,1-.2-1.69c2.5-.61,5-1.36,7.43-2.21a.87.87,0,0,1,1.1.53.86.86,0,0,1-.53,1.09c-2.49.87-5,1.63-7.59,2.26A.75.75,0,0,1,28.31,366.15Z"/><path class="cls-5" d="M29.11,374.15a.86.86,0,0,1-.05-1.72,14.46,14.46,0,0,0,5.26-1.28.86.86,0,0,1,1.14.43.84.84,0,0,1-.42,1.13,16.19,16.19,0,0,1-5.89,1.44Z"/><path class="cls-5" d="M36.71,379.52H34.94c-2.52-.05-5.12-.11-7.19-1.9a.86.86,0,0,1,1.13-1.3c1.59,1.39,3.78,1.43,6.1,1.48h.41A57.09,57.09,0,0,0,46.24,377a18.85,18.85,0,0,0,6.56-2.11c2.49-1.48,4.54-4,6.46-8a46.71,46.71,0,0,0,4.65-19.87.84.84,0,0,1,.86-.85.86.86,0,0,1,.86.86,48.49,48.49,0,0,1-4.82,20.6c-2.08,4.28-4.34,7-7.12,8.71a20.47,20.47,0,0,1-7.16,2.32A58.8,58.8,0,0,1,36.71,379.52Z"/><path class="cls-4" d="M61.67,328.57c-9.38.83-18.73,2-28,3.34.55,7.19,1,13.82,1,20.49,11.22-.53,20.86-1.58,31.51-2.91A134.33,134.33,0,0,0,67,328.13C65.2,328.27,63.44,328.41,61.67,328.57Z"/><path class="cls-4" d="M40.21,329.61q13.31-1.8,26.69-2.85c0-.83-.09-1.66-.16-2.49-11.24,1-22.34,2.32-33.4,3.87.06.81.12,1.62.18,2.41C35.75,330.22,38,329.9,40.21,329.61Z"/></g><g class="cls-2"><path class="cls-5" d="M444.5,129.16a.8.8,0,0,1-.3-.06.85.85,0,0,1-.53-1l3.77-14.69a.86.86,0,0,1,1.66.42l-1.85,7.24,4-7.81a.86.86,0,0,1,1.53.78l-7.51,14.66A.87.87,0,0,1,444.5,129.16Z"/><path class="cls-4" d="M456.84,114s-12.15-4.9-12.19-5.07c-.88-.42-1.31-.67-2-.32a1.6,1.6,0,0,0-.58,2.38,2.51,2.51,0,0,0,1,.58q6.48,2.72,13.07,5.16c.85.31,2,.56,2.54-.15a1.46,1.46,0,0,0-.1-1.74C458.15,114.3,457.38,114.18,456.84,114Z"/><path class="cls-4" d="M462.42,94.19l-7.9-2.94c-.66-.25-1.65-.59-2,.08-.87,1.65.22,3.79-.38,5.56a8.27,8.27,0,0,1-.74,1.49c-1.84,3.17-3.69,6.35-5.63,9.77a68.4,68.4,0,0,0,11.31,4.39,123.27,123.27,0,0,1,3.33-12.41c.44-1.45,1.35-1.75,2.58-2.79C465.18,95.49,463.52,94.61,462.42,94.19Z"/></g><g class="cls-2"><path class="cls-5" d="M453,182.58h-.16c-17.69-3.34-33.81-7.24-47.25-10.62a.87.87,0,0,1-.65-.86c.08-2.32.22-4.66.36-6.93a.86.86,0,1,1,1.71.11c-.12,2-.25,4.11-.32,6.18,13.9,3.5,29.15,7.17,46.47,10.43a.86.86,0,0,1-.16,1.7Z"/><path class="cls-4" d="M466.15,188.64c-2.52-1.39-5.51-1.6-8.39-1.77l-51.84-3.2c-1.58-.1-3.28-.17-4.61.7s-1.85,3-.59,4a3.68,3.68,0,0,0,2,.54l60.17,4a5.12,5.12,0,0,0,1.79-.1C466.35,192.33,467.58,189.43,466.15,188.64Z"/><path class="cls-4" d="M463.93,182.74a5.72,5.72,0,0,1-3.73,2.09,6.34,6.34,0,0,1-4.15-1.23,6.77,6.77,0,0,1-2.49-3.13q-.51,3.63-1,7.26a35.93,35.93,0,0,1,7.9.56c.85.15,1.7.34,2.56.46a.65.65,0,0,0,.46-.05.62.62,0,0,0,.2-.41,59,59,0,0,0,1.17-6.85A9.5,9.5,0,0,1,463.93,182.74Z"/><path class="cls-4" d="M454.82,180c.77,2.14,3.36,3.94,5.66,3.45,1.77-.37,2.85-1.86,3.61-3.47q-4.8-1.16-9.66-2.11A7.64,7.64,0,0,0,454.82,180Z"/><path class="cls-4" d="M403.28,165.78q30.84,6.79,61.38,14.84a2,2,0,0,0,1.47,0,2,2,0,0,0,.69-.81,10.89,10.89,0,0,0,1.52-4.42,5,5,0,0,0-1.58-4.25,7.85,7.85,0,0,0-2.42-1.21l-20.74-7.52c-8-2.89-16-5.79-24.15-8.06a25.84,25.84,0,0,0-8.52-1.28,9.68,9.68,0,0,0-7.44,3.8C401.89,159.21,401.79,162.27,403.28,165.78Z"/></g><g class="cls-2"><path class="cls-5" d="M433.53,323.14a8.42,8.42,0,0,1-7.11-4.05.85.85,0,0,1,.3-1.17.84.84,0,0,1,1.17.3,6.68,6.68,0,0,0,5.64,3.2h0a6.66,6.66,0,0,0,5.64-3.24,16.11,16.11,0,0,0,1.44-4.11c.62-2.48,1.27-5.05,3.58-6.48,2.8-1.73,6.37-.48,8.58,1.12a29.24,29.24,0,0,1,3,2.56A23.22,23.22,0,0,0,459,314a9.6,9.6,0,0,0,8.6,1.18,7,7,0,0,0,4.47-6.79c-.21-2.11-1.49-3.93-2.85-5.85-.39-.55-.79-1.12-1.17-1.69-1.8-2.78-2.94-6.72-.73-9.42,2.07-2.53,5.8-2.37,8.43-2a89.93,89.93,0,0,1,15.8,3.51.84.84,0,0,1,.56,1.07.85.85,0,0,1-1.08.56,88.49,88.49,0,0,0-15.5-3.43c-2.22-.29-5.35-.45-6.88,1.42s-.56,5.22.84,7.39c.36.55.75,1.1,1.13,1.64,1.43,2,2.91,4.11,3.16,6.67a8.74,8.74,0,0,1-5.56,8.56A11.35,11.35,0,0,1,458,315.42a25.57,25.57,0,0,1-3.45-2.9,28.23,28.23,0,0,0-2.79-2.42c-1.78-1.28-4.59-2.33-6.67-1-1.71,1.05-2.25,3.18-2.82,5.43a17.43,17.43,0,0,1-1.61,4.56,8.44,8.44,0,0,1-7.12,4.09Z"/><path class="cls-4" d="M506.42,290.74a2.94,2.94,0,0,0-.81-1.13,8.8,8.8,0,0,0-1.38-1.21,8.62,8.62,0,0,0-1.59-.58,4,4,0,0,0-2.89.44,5.06,5.06,0,0,0-1.83,2.5,4.07,4.07,0,0,0,.78,4.59,5.81,5.81,0,0,0,2.24,1.51,4.13,4.13,0,0,0,2.77-.19,5.15,5.15,0,0,0,2.92-4.48A3.58,3.58,0,0,0,506.42,290.74Z"/><path class="cls-4" d="M513.28,287.59a10.49,10.49,0,0,0-9.06-7.28,13.7,13.7,0,0,0-11.06,4.49,20.52,20.52,0,0,0-5,10.86,46.51,46.51,0,0,0-7.79-1.08c0-1.14-.09-2.27-.13-3.4l-3.1-.28L475,297.27a3.84,3.84,0,0,0-.27,2.44,3.62,3.62,0,0,0,1.92,1.81c4.52,2.4,9.59,3.57,14.61,4.6,5.34,1.09,11.38,1.92,15.82-1.24,2.94-2.1,4.56-5.58,5.61-9C513.48,293.16,514,290.28,513.28,287.59Zm-7,8.85a5.81,5.81,0,0,1-3.05,1.81,5.13,5.13,0,0,1-3.49-.4,6.76,6.76,0,0,1-.72-.46c-.23-.17-.51-.29-.73-.47a8.62,8.62,0,0,1-1.25-1.38c-1.4-1.84-1-4.3,0-6.21a5,5,0,0,1,2.56-2.53,5.35,5.35,0,0,1,3.59-.25.91.91,0,0,1,.26.13l.93.3a3.51,3.51,0,0,1,1,.59,12.51,12.51,0,0,1,1.76,1.65,4.83,4.83,0,0,1,.69,4A7,7,0,0,1,506.31,296.44Z"/></g><g class="cls-2"><path class="cls-5" d="M312.7,186.8a.89.89,0,0,1-.68-.24.88.88,0,0,1-.24-.8c1-4.64,2.18-9.31,3.8-15.16a.87.87,0,0,1,.22-.37,421.26,421.26,0,0,0,36.63-42.11.86.86,0,0,1,1.37,1,422.66,422.66,0,0,1-36.62,42.13c-1.43,5.15-2.5,9.38-3.42,13.49,3.9-1,7.91-2,12-3A255.25,255.25,0,0,0,361,133.11a.86.86,0,0,1,1.5.84,256.61,256.61,0,0,1-35.66,49.18.79.79,0,0,1-.42.25c-4.64,1.18-9.19,2.3-13.59,3.39Z"/><path class="cls-5" d="M354.36,162.72a3.49,3.49,0,0,1-2.83-1c-1.58-1.71-1.2-4.49,1.05-7.45,1.92-2.54,4-5,6.09-7.31,2.34-2.66,4.75-5.42,6.85-8.33,1.77-2.44,4.17-6.18,4.69-10.34a6.85,6.85,0,0,0-.3-3.43c-1.14-2.81-4.31-4.54-8-6.53l-.26-.14a.86.86,0,0,1,.82-1.51l.26.14c3.8,2.06,7.38,4,8.75,7.39a8.4,8.4,0,0,1,.41,4.29c-.56,4.56-3.12,8.54-5,11.14-2.14,3-4.58,5.76-6.94,8.45-2,2.33-4.14,4.73-6,7.22-.46.59-2.64,3.65-1.16,5.23a1.74,1.74,0,0,0,1.48.47,1.71,1.71,0,0,0,1.32-.8,1.27,1.27,0,0,0-.14-1.28c-.2-.26-.35-.22-.4-.21a.87.87,0,0,1-1-.64.86.86,0,0,1,.64-1,2.05,2.05,0,0,1,2.17.85,3,3,0,0,1,.27,3.16,3.44,3.44,0,0,1-2.62,1.65Z"/><path class="cls-5" d="M310.81,188.67a.87.87,0,0,1-.72-.28.86.86,0,0,1,.07-1.21l2.31-2.09a.86.86,0,0,1,1.21.06.87.87,0,0,1-.06,1.22l-2.31,2.08A.9.9,0,0,1,310.81,188.67Z"/><path class="cls-5" d="M335.55,172.14a.84.84,0,0,1-.64-.2l-10.32-8.8a.85.85,0,0,1-.1-1.21.86.86,0,0,1,1.21-.1l10.33,8.8a.86.86,0,0,1,.09,1.21A.85.85,0,0,1,335.55,172.14Z"/><path class="cls-5" d="M331.94,176.91a.85.85,0,0,1-.67-.24l-10.5-10a.86.86,0,1,1,1.19-1.24l10.49,10a.86.86,0,0,1,0,1.22A.89.89,0,0,1,331.94,176.91Z"/><path class="cls-5" d="M326.32,182.17a115.88,115.88,0,0,1-9.72-11.52c.65-.72,1.34-1.42,2.06-2.08l10.06,11a.26.26,0,0,1,.09.19c0,.06-.05.1-.1.15C327.91,180.69,327.1,181.45,326.32,182.17Z"/><path class="cls-5" d="M360.31,117.54s2.27-5.33,2.22-5.47a2.74,2.74,0,0,1,2.16-1.4,4.77,4.77,0,0,1,2.74.54,3.35,3.35,0,0,1,1.48,1.32c.6,1.13,0,2.41-.61,3.5l-2.53,4.53C363.75,119.24,362.13,118.73,360.31,117.54Z"/><path class="cls-4" d="M358.87,116.19c-.77.41-1.87,2.34-2.36,3.07A58.47,58.47,0,0,0,352,127.4a2.24,2.24,0,0,0-.28,1.35,2.13,2.13,0,0,0,.81,1.12,47.6,47.6,0,0,0,8,5.31c.64.37,1.48.72,2.05.26a1.79,1.79,0,0,0,.46-.66q2.61-5.35,5.07-10.79a2.29,2.29,0,0,0,.29-1.22,2.12,2.12,0,0,0-.72-1.12C365.61,119.61,359.65,115.77,358.87,116.19Z"/></g></svg>